<svg xmlns="http://www.w3.org/2000/svg" viewBox="0 0 52.917 52.917"><g style="stroke-width:.5" transform="matrix(2 0 0 2 0 0)"><rect height="26.458" width="26.458" style="opacity:1;fill:#222;fill-opacity:1;fill-rule:nonzero;stroke:none;stroke-width:.25;stroke-linecap:butt;stroke-linejoin:round;stroke-miterlimit:4;stroke-dasharray:none;stroke-dashoffset:0;stroke-opacity:.90944878;paint-order:normal" rx="1.984" ry="1.984"/><rect style="opacity:1;fill:#ff9800;fill-opacity:1;fill-rule:nonzero;stroke:none;stroke-width:.25;stroke-linecap:butt;stroke-linejoin:round;stroke-miterlimit:4;stroke-dasharray:none;stroke-dashoffset:0;stroke-opacity:.90944878;paint-order:normal" width="23.813" height="23.813" x="1.323" y="1.323" rx="1.323" ry="1.323"/><path style="fill:#222;fill-opacity:1;stroke-width:.5" d="M9.195 3.115c1.057.001 1.623.29 2.252 1.149 1.303 1.78 1.663 2.023 2.992 2.023 1.131 0 2-.247 4.532-1.29.292-.12.743 2.338.989 5.385l.144 1.791-.744.327c-2.031.89-3.801 1.224-4.827.91-.6-.184-1.07-.66-1.906-1.926-.716-1.085-1.607-1.42-3.097-1.166-.96.164-2.793.777-2.822.944-.01.062.432 2.123.983 4.58l.913 4.069a9.447 11.252 47.5 0 1-1.241-.123c-.123-.833-.591-3.045-1.574-7.461-.984-4.422-1.71-7.938-1.67-8.077.116-.396.416-.503.708-.253l.248.213.727-.289c1.287-.51 2.541-.807 3.393-.806zM5.374 5.057a.04.04 0 0 0-.027.01c-.027.024.218 1.239.545 2.7.398 1.778.628 2.598.694 2.479.055-.098.148-.58.207-1.07.132-1.098-.01-2.064-.43-2.908-.267-.538-.826-1.213-.99-1.21z"/><path d="M.728 18.52v4.168a2.772 2.772 0 0 0 2.778 2.778h19.447a2.772 2.772 0 0 0 2.778-2.778v-4.167z" style="opacity:1;fill:#222;fill-opacity:1;fill-rule:nonzero;stroke:none;stroke-width:.25;stroke-linecap:butt;stroke-linejoin:round;stroke-miterlimit:4;stroke-dasharray:none;stroke-dashoffset:0;stroke-opacity:.90944878;paint-order:normal"/><g aria-label="NATION" style="font-style:normal;font-variant:normal;font-weight:500;font-stretch:normal;font-size:4.23333311px;line-height:2.11666656px;font-family:Montserrat;-inkscape-font-specification:'Montserrat Medium';text-align:center;letter-spacing:0;text-anchor:middle;opacity:1;fill:#eee;fill-opacity:1;fill-rule:nonzero;stroke:none;stroke-width:2.11666656;stroke-linecap:butt;stroke-linejoin:round;stroke-miterlimit:4;stroke-dasharray:none;stroke-dashoffset:0;stroke-opacity:1;paint-order:stroke fill markers"><path d="M7.322 20.325h.55v2.964h-.537l-1.524-2.04v2.04h-.555v-2.964h.538l1.528 2.045zM10.79 23.289l-.263-.627H9.079l-.263.627h-.588l1.3-2.964h.588L11.4 23.29zm-1.508-1.114h1.042l-.517-1.244zM11.127 20.325h2.417v.504h-.923v2.46h-.571v-2.46h-.923zM13.946 20.325h.567v2.964h-.567zM16.59 20.287q.44 0 .8.2.364.198.572.545.207.347.207.77 0 .424-.207.775-.208.348-.572.55-.36.204-.8.204-.44 0-.804-.203-.36-.203-.567-.55-.208-.352-.208-.775 0-.424.208-.77.207-.348.567-.547.364-.199.804-.199zm.009.508q-.271 0-.504.136-.233.13-.368.364-.136.228-.136.508t.136.512q.14.233.368.368.233.136.504.136.266 0 .495-.136.229-.135.36-.368.135-.233.135-.512 0-.28-.135-.508-.131-.233-.36-.364-.229-.136-.495-.136zM20.733 20.325h.55v2.964h-.537l-1.524-2.04v2.04h-.555v-2.964h.538l1.528 2.045z" style="font-style:normal;font-variant:normal;font-weight:500;font-stretch:normal;font-size:4.23333311px;font-family:Montserrat;-inkscape-font-specification:'Montserrat Medium';text-align:center;letter-spacing:0;text-anchor:middle;fill:#eee;fill-opacity:1;stroke-width:2.11666656"/></g></g></svg>