<svg viewBox="0 0 52.917 52.917" xmlns="http://www.w3.org/2000/svg"><g style="stroke-width:.5" transform="matrix(2 0 0 2 0 0)"><rect ry="1.984" rx="1.984" style="opacity:1;fill:#222;fill-opacity:1;fill-rule:nonzero;stroke:none;stroke-width:.25;stroke-linecap:butt;stroke-linejoin:round;stroke-miterlimit:4;stroke-dasharray:none;stroke-dashoffset:0;stroke-opacity:.909449;paint-order:normal" width="26.458" height="26.458"/><rect ry="1.323" rx="1.323" y="1.323" x="1.323" height="23.813" width="23.813" style="opacity:1;fill:#03a9f4;fill-opacity:1;fill-rule:nonzero;stroke:none;stroke-width:.25;stroke-linecap:butt;stroke-linejoin:round;stroke-miterlimit:4;stroke-dasharray:none;stroke-dashoffset:0;stroke-opacity:.909449;paint-order:normal"/><path style="fill:#222;fill-opacity:1;stroke-width:3.77953" d="M317.793 291.84c-2.201 0-4.403.057-5.662.174-14.445 1.334-27.065 6.463-38.18 15.53-2.392 1.952-7.102 6.657-9.123 9.11-8.96 10.875-14.143 23.407-15.576 37.633-.29 2.884-.333 9.188-.074 11.988 1.354 14.67 6.652 27.501 15.974 38.696.771.925 2.538 2.805 4.016 4.283 3.695 3.695 6.551 6.048 10.777 8.857 9.552 6.35 21.03 10.292 32.407 11.118 1.12.08 2.343.164 2.716.19 1.594.117 6.771-.053 9.067-.265 8.598-.79 16.612-3.072 24.375-6.94 20.17-10.048 34.235-29.5 37.38-51.687.53-3.73.7-6.124.694-10.039-.011-7.712-1.125-14.568-3.557-21.836-2.715-8.116-6.908-15.554-12.593-22.38-1.78-2.138-6.199-6.558-8.297-8.3-11.276-9.356-23.999-14.602-38.682-15.958-1.26-.117-3.46-.174-5.662-.174zm-16.07 10.818c-3.44 3.762-7.205 8.701-10.084 13.465-1.396 2.31-3.498 6.328-4.739 9.064-.205.453-.39.855-.546 1.182-.08-.03-.115-.037-.208-.074-.581-.236-1.409-.61-2.318-1.033-1.818-.848-4.015-1.945-5.61-2.834a108.957 108.957 0 0 1-3.558-2.082c-.449-.275-.807-.507-1.12-.71.147-.169.268-.32.456-.517 4.905-5.104 10.096-8.99 16.27-12.193 3.384-1.756 7.66-3.205 11.457-4.268zm32.095.016c9.236 2.55 18.33 7.382 25.13 13.847a80.463 80.463 0 0 1 2.759 2.73c.15.16.225.242.34.37-.326.21-.697.458-1.15.738a99.01 99.01 0 0 1-3.28 1.95c-.783.438-2.567 1.355-3.896 2.007-1.329.653-3.11 1.47-3.87 1.787l-.619.266-.177-.414c-.948-2.125-3.77-7.62-4.768-9.285-3.006-5.01-6.795-9.956-10.469-13.996zm-20.285.072c.01.775.022 1.602.03 2.777.018 2.965.029 7.059.029 11.559v15.414h-.237c-3.217-.05-9.49-.916-13.892-1.933a76.7 76.7 0 0 1-4.162-1.079c-.386-.113-.639-.206-.9-.295.17-.392.397-.884.663-1.447a84.909 84.909 0 0 1 1.86-3.691c3.557-6.583 7.245-11.718 12.299-17.112.746-.796 2.18-2.202 3.425-3.38.338-.32.59-.54.885-.813zm8.52 0c.19.175.337.295.545.488 1.033.961 2.228 2.1 2.91 2.805 5.368 5.553 9.393 11.053 13.11 17.908.529.978 1.252 2.455 1.845 3.707.283.599.54 1.132.723 1.55-.3.1-.616.2-1.063.325a86.122 86.122 0 0 1-15.68 2.85c-.862.073-2.01.13-2.45.133v-15.444c0-5.064.022-9.157.044-11.974.008-1.027.005-1.675.016-2.348zm-53.844 23.578c.21.13.407.247.664.414 4.225 2.74 9.472 5.5 14.025 7.381.261.108.326.153.473.223-.104.344-.187.619-.369 1.21-1.988 6.468-3.371 14.257-3.682 20.802l-10.904.03-10.809.03.032-.459c.102-1.751.403-4.065.84-6.436 1.034-5.614 3.062-11.486 5.685-16.537 1.17-2.254 3.008-5.203 4.045-6.658zm99.123.045c4.23 6.258 7.236 12.594 8.963 19.502.874 3.496 1.628 8.558 1.652 10.543H367.2c-3.223 0-6.158.001-8.297-.016-1.069-.008-1.938-.018-2.539-.029h-.133v-.015c-.002-3.06-.848-9.346-1.86-13.997-.48-2.202-1.643-6.56-2.155-8.015.158-.072.294-.144.486-.223 4.516-1.865 9.808-4.654 14.012-7.38.238-.155.421-.254.619-.37zm-22.797 9.74c.257-.081.327.06.828 1.65 1.719 5.46 3.127 13.301 3.3 18.382l.038 1.156-13.76.033c-10.936.027-13.772 0-13.824-.135-.036-.094-.05-3.96-.031-8.593l.035-8.424 1.36-.098c6.8-.493 11.671-1.228 16.882-2.547 1.833-.463 4.2-1.115 5.172-1.424zm-53.103 1.024c6.499 2.004 13.597 3.328 21.54 3.883l.548.043v15.295l-12.801.03c-4.288.011-7.74.017-10.114 0-1.186-.007-2.098-.03-2.716-.044h-.059c.016-.322.038-.663.074-1.123.091-1.15.245-2.632.412-3.987.52-4.204 1.649-9.509 2.807-13.183.174-.553.232-.706.309-.914zm-33.825 27.695h21.661c.039.457.14 1.753.22 2.865.447 6.15 1.649 12.549 3.485 18.588l.22.707c-.286.122-.604.264-.959.414-4.286 1.813-10.064 4.9-13.568 7.25-.172.116-.32.21-.473.309-.04-.054-.059-.071-.103-.133a38.167 38.167 0 0 1-1.328-2.008c-1.022-1.64-2.21-3.715-3.012-5.314-3.31-6.597-5.714-15.346-6.111-22.219zm30.178 0 12.83.03 12.905.044v15.282l-.547.044c-7.816.546-13.75 1.563-20.551 3.528l-.664.193c-.185.052-.392.104-.547.147-.074-.221-.142-.425-.236-.739a77.438 77.438 0 0 1-.99-3.601c-1.123-4.525-1.894-9.634-2.17-14.336zm60.016 0-.03.592c-.349 5.93-1.43 12.074-3.13 17.863-.115.391-.183.638-.25.842-.046-.014-.037-.013-.09-.03-6.221-1.975-13.792-3.332-21.613-3.868l-.622-.043v-15.298l12.905-.029zm8.504 0h21.658c-.01.384-.076 1.392-.178 2.274-1.146 9.928-4.34 18.756-9.744 26.93-.242.365-.447.658-.635.929-.089-.058-.154-.098-.25-.162-3.606-2.42-9.503-5.578-13.804-7.397-.355-.15-.673-.293-.96-.414l.221-.707c1.882-6.19 3.236-13.569 3.559-19.488.04-.724.096-1.571.133-1.965zm-42.713 23.918V405.311c-.001 4.22-.018 8.165-.03 10.984-.004 1.228-.006 2.108-.013 2.908l-.031-.03a102.604 102.604 0 0 1-2.938-2.82c-5.817-5.835-10.52-12.328-14.32-19.753a94.705 94.705 0 0 1-1.594-3.32c-.21-.457-.39-.838-.533-1.169.12-.039.174-.07.326-.117.799-.242 2.025-.569 3.66-.974 4.687-1.164 10.495-2.044 14.559-2.229zm8.4 0 .887.045c2.493.116 6.092.532 9.258 1.092 1.945.344 4.525.935 6.597 1.463 1.036.263 1.952.509 2.584.707.067.02.089.025.149.045a93.13 93.13 0 0 1-.9 1.994c-4.115 8.899-10.478 17.64-17.643 24.285-.324.3-.584.538-.871.799-.004-.18-.012-.167-.016-.385-.03-2.163-.045-6.358-.045-14.307zm-35.89 6.244c.101.206.172.342.384.828 3.598 8.233 8.853 16.138 14.823 22.854a81.323 81.323 0 0 1-3.174-1.004 60.548 60.548 0 0 1-20.078-11.62c-.455-.395-1.796-1.71-2.983-2.892-.582-.58-1.13-1.131-1.535-1.55a46.036 46.036 0 0 1 1.727-1.079c1.514-.904 3.46-2 5.123-2.863.941-.488 2.361-1.176 3.617-1.758a46.314 46.314 0 0 1 2.096-.916zm63.38 0c.768.293 2.155.911 3.899 1.774 1.98.98 4.148 2.126 5.64 2.996 1.493.87 2.489 1.463 3.042 1.845-.305.322-.702.743-1.153 1.196a90.558 90.558 0 0 1-2.73 2.629c-6.566 5.996-15.113 10.459-23.698 12.918 5.906-6.713 11.04-14.352 14.618-22.53.212-.486.28-.622.382-.828z" transform="matrix(.1323 0 0 .1323 -30.427 -36.055)"/><path d="M.728 18.52v4.168a2.772 2.772 0 0 0 2.778 2.778h19.447a2.772 2.772 0 0 0 2.778-2.778v-4.167z" style="opacity:1;fill:#222;fill-opacity:1;fill-rule:nonzero;stroke:none;stroke-width:.25;stroke-linecap:butt;stroke-linejoin:round;stroke-miterlimit:4;stroke-dasharray:none;stroke-dashoffset:0;stroke-opacity:.909449;paint-order:normal"/><g aria-label="GLOBE" style="font-style:normal;font-variant:normal;font-weight:500;font-stretch:normal;font-size:4.23333px;line-height:2.11667px;font-family:Montserrat;-inkscape-font-specification:'Montserrat Medium';text-align:center;text-anchor:middle;opacity:1;fill:#eee;fill-opacity:1;fill-rule:nonzero;stroke:none;stroke-width:2.11667;stroke-linecap:butt;stroke-linejoin:round;stroke-miterlimit:4;stroke-dasharray:none;stroke-dashoffset:0;stroke-opacity:1;paint-order:stroke fill markers"><path style="font-style:normal;font-variant:normal;font-weight:500;font-stretch:normal;font-size:4.23333px;line-height:2.11667px;font-family:Montserrat;-inkscape-font-specification:'Montserrat Medium';text-align:center;letter-spacing:-.264583px;text-anchor:middle;fill:#eee;fill-opacity:1;fill-rule:nonzero;stroke:none;stroke-width:.25;stroke-linecap:butt;stroke-linejoin:round;stroke-miterlimit:4;stroke-dasharray:none;stroke-dashoffset:0;stroke-opacity:1;paint-order:stroke fill markers" d="M8.217 21.854h.495v1.126q-.233.173-.55.283-.318.106-.623.106-.436 0-.796-.203-.355-.203-.563-.55-.207-.352-.207-.775 0-.424.212-.766.211-.348.575-.547.369-.203.813-.203.318 0 .627.115.309.114.533.313l-.322.419q-.17-.16-.393-.25-.22-.089-.445-.089-.28 0-.516.136-.233.131-.369.364-.135.233-.135.508 0 .28.135.512.14.233.373.368.233.136.516.136.153 0 .318-.047.17-.05.322-.14z"/><path d="M9.323 20.363h.567v2.451h1.279v.513H9.323zM12.952 20.325q.44 0 .8.2.364.198.571.545.208.347.208.77 0 .424-.208.776-.207.347-.571.55-.36.203-.8.203-.44 0-.804-.203-.36-.203-.568-.55-.207-.352-.207-.775 0-.424.207-.77.208-.348.568-.547.364-.199.804-.199zm.008.508q-.27 0-.503.136-.233.131-.369.364-.135.228-.135.508t.135.512q.14.233.369.368.232.136.503.136.267 0 .496-.136.228-.135.36-.368.135-.233.135-.512 0-.28-.135-.508-.132-.233-.36-.364-.229-.136-.496-.136z" style="font-style:normal;font-variant:normal;font-weight:500;font-stretch:normal;font-size:4.23333px;line-height:2.11667px;font-family:Montserrat;-inkscape-font-specification:'Montserrat Medium';text-align:center;text-anchor:middle;fill:#eee;fill-opacity:1;fill-rule:nonzero;stroke:none;stroke-width:2.11667;stroke-linecap:butt;stroke-linejoin:round;stroke-miterlimit:4;stroke-dasharray:none;stroke-dashoffset:0;stroke-opacity:1;paint-order:stroke fill markers"/><path d="M15.531 22.83s.516-.008.678-.008c.08 0 .298-.01.442-.06.145-.05.217-.139.218-.3.002-.16-.063-.25-.218-.302a1.918 1.918 0 0 0-.442-.064c-.087-.003-.669 0-.669 0v1.234h-.567v-2.963h1.236c.384 0 .68.088.889.266.209.178.313.271.313.596 0 .116-.051.27-.149.395a.997.997 0 0 1-.29.222s.193.1.29.228a.7.7 0 0 1 .15.389c-.001.214-.05.408-.314.595-.264.188-.524.255-.89.27l-.667.003zm.01-1.234s.499-.004.668 0c.084.001.299-.01.442-.061.144-.052.216-.145.218-.306.002-.161-.072-.252-.218-.303a1.662 1.662 0 0 0-.442-.064c-.159-.003-.669 0-.669 0zM17.972 20.409h2.172v.495h-1.605v.733h1.44v.495h-1.44v.745h1.655v.495h-2.222z" style="font-style:normal;font-variant:normal;font-weight:500;font-stretch:normal;font-size:4.23333px;line-height:2.11667px;font-family:Montserrat;-inkscape-font-specification:'Montserrat Medium';text-align:center;letter-spacing:0;text-anchor:middle;fill:#eee;fill-opacity:1;fill-rule:nonzero;stroke:none;stroke-width:2.11667;stroke-linecap:butt;stroke-linejoin:round;stroke-miterlimit:4;stroke-dasharray:none;stroke-dashoffset:0;stroke-opacity:1;paint-order:stroke fill markers"/></g></g></svg>