<svg xmlns="http://www.w3.org/2000/svg" viewBox="0 0 52.917 52.917"><g style="stroke-width:.5" transform="scale(2)"><rect ry="1.984" rx="1.984" style="opacity:1;fill:#222;fill-opacity:1;fill-rule:nonzero;stroke:none;stroke-width:.25;stroke-linecap:butt;stroke-linejoin:round;stroke-miterlimit:4;stroke-dasharray:none;stroke-dashoffset:0;stroke-opacity:.90944878;paint-order:normal" width="26.458" height="26.458"/><rect ry="1.323" rx="1.323" y="1.323" x="1.323" height="23.813" width="23.813" style="opacity:1;fill:#00897b;fill-opacity:1;fill-rule:nonzero;stroke:none;stroke-width:.25;stroke-linecap:butt;stroke-linejoin:round;stroke-miterlimit:4;stroke-dasharray:none;stroke-dashoffset:0;stroke-opacity:.90944878;paint-order:normal"/><path d="M.728 18.52v4.168a2.772 2.772 0 0 0 2.778 2.778h19.447a2.772 2.772 0 0 0 2.778-2.778v-4.167z" style="opacity:1;fill:#222;fill-opacity:1;fill-rule:nonzero;stroke:none;stroke-width:.24999999;stroke-linecap:butt;stroke-linejoin:round;stroke-miterlimit:4;stroke-dasharray:none;stroke-dashoffset:0;stroke-opacity:.90944878;paint-order:normal"/><path style="fill:#222;fill-opacity:1;stroke-width:.5" d="m9.402 18.52-.018-.806-.613-.101c-.657-.11-1.53-.363-2.002-.582-.775-.36-1.573-1.094-1.85-1.703-.146-.32-.176-.476-.175-.89.001-.597.15-.937.554-1.27.418-.344.896-.507 1.503-.513.594-.005.968.116 1.36.439 1.278 1.052.584 2.796-1.181 2.968l-.414.04.18.172c.343.326 1.114.627 2.076.81.664.125.595.426.595-2.558v-2.621l-.34-.142-.9-.376C6.732 10.78 5.72 9.894 5.344 8.899c-.295-.779-.207-2.047.2-2.865.567-1.14 1.882-2.008 3.502-2.312l.372-.07V2.13h.516V3.602h1.292V2.129h.58v.766c0 .421.023.766.05.766.214.002.952.148 1.352.267 1.647.49 2.623 1.357 2.716 2.412.04.467-.09.824-.425 1.162-.38.384-.662.487-1.335.487-.532 0-.611-.015-.935-.182a1.63 1.63 0 0 1-.845-1.048c-.069-.28-.062-.363.058-.722.142-.428.28-.585.765-.872.202-.12.36-.162.63-.17.197-.005.358-.029.359-.053.002-.154-1.026-.568-1.711-.688-.213-.037-.453-.08-.534-.096l-.146-.029.017 2.42.017 2.42.634.227c1.37.491 2.561 1.115 3.2 1.675.884.776 1.161 1.294 1.216 2.272.061 1.073-.157 1.861-.735 2.663-.522.723-1.273 1.2-2.433 1.547a9.29 9.29 0 0 1-1.307.28l-.607.069v1.625h-.581v-1.59H9.933v1.59H9.42zm1.58-1.312.243-.001v-4.7l-.582-.212c-.32-.116-.61-.212-.646-.212-.041 0-.064.904-.064 2.559V17.2l.275.024c.15.013.332.015.403.004.071-.01.238-.02.372-.02zm1.532-.34c.486-.209 1.051-.71 1.232-1.093.2-.424.203-1.13.006-1.539-.274-.565-.727-.944-1.621-1.357l-.325-.15V17.102l.175-.04c.097-.022.337-.11.533-.194zm-1.29-10.44V4.074h-.403c-.222.001-.513.018-.646.038l-.243.037.016 2.122.017 2.123.162.043c.089.024.365.111.613.194.249.083.46.151.469.153.008 0 .016-1.058.016-2.354zm-1.807-.205c0-2.178.04-2.053-.554-1.742-.484.253-.95.746-1.09 1.153-.24.692-.044 1.309.59 1.864.237.206.906.63 1.005.636.027.001.049-.859.049-1.911z"/><g aria-label="MARKETS" style="font-style:normal;font-variant:normal;font-weight:500;font-stretch:normal;font-size:4.23333311px;line-height:2.11666656px;font-family:Montserrat;-inkscape-font-specification:'Montserrat Medium';text-align:center;letter-spacing:0;text-anchor:middle;opacity:1;fill:#eee;fill-opacity:1;fill-rule:nonzero;stroke:none;stroke-width:2.11666656;stroke-linecap:butt;stroke-linejoin:round;stroke-miterlimit:4;stroke-dasharray:none;stroke-dashoffset:0;stroke-opacity:1;paint-order:stroke fill markers"><path d="M2.843 20.51h.648l.982 1.909.974-1.91h.648v2.964h-.521v-2.125l-.923 1.82h-.364l-.927-1.82v2.125h-.517zM9.013 23.473l-.262-.626H7.303l-.263.626h-.588l1.3-2.963h.588l1.283 2.963zM7.506 22.36h1.042l-.517-1.245zM11.833 23.473l-.512-.876q-.034.004-.106.004h-.669v.872H9.98V20.51h1.236q.576 0 .889.266.313.267.313.754 0 .347-.152.593-.148.245-.436.368l.652.982zm-1.287-1.372h.669q.322 0 .491-.14.17-.139.17-.414 0-.271-.17-.407-.17-.135-.491-.135h-.669zM15.684 23.473h-.682l-.931-1.27-.466.512v.758h-.567V20.51h.567v1.477l1.338-1.477h.669l-1.139 1.253zM16.114 20.51h2.172v.495H16.68v.732h1.44v.496h-1.44v.745h1.655v.495h-2.222zM18.578 20.51h2.418v.503h-.923v2.46H19.5v-2.46h-.923zM23.26 21.272q-.229-.14-.47-.216-.237-.076-.42-.076-.202 0-.32.076-.12.076-.12.211 0 .123.081.208.085.08.207.135.127.051.343.115.3.089.491.177.195.09.33.263.136.174.136.457 0 .271-.148.474-.144.2-.402.305-.254.106-.584.106-.348 0-.678-.127-.33-.131-.575-.347l.237-.483q.224.208.503.326.28.119.521.119.237 0 .373-.09.135-.092.135-.249 0-.127-.085-.207-.08-.085-.207-.136-.127-.05-.347-.114-.3-.09-.491-.174-.19-.084-.326-.254-.136-.173-.136-.453 0-.258.136-.448.14-.195.39-.301.253-.106.583-.106.288 0 .568.085.283.084.503.228z" style="font-style:normal;font-variant:normal;font-weight:500;font-stretch:normal;font-size:4.23333311px;font-family:Montserrat;-inkscape-font-specification:'Montserrat Medium';text-align:center;letter-spacing:0;text-anchor:middle;fill:#eee;fill-opacity:1;stroke-width:2.11666656"/></g></g></svg>