<svg xmlns="http://www.w3.org/2000/svg" viewBox="0 0 52.917 52.917"><g style="stroke-width:.5" transform="scale(2)"><rect height="26.458" width="26.458" style="opacity:1;fill:#222;fill-opacity:1;fill-rule:nonzero;stroke:none;stroke-width:.25;stroke-linecap:butt;stroke-linejoin:round;stroke-miterlimit:4;stroke-dasharray:none;stroke-dashoffset:0;stroke-opacity:.90944878;paint-order:normal" rx="1.984" ry="1.984"/><rect style="opacity:1;fill:#f44336;fill-opacity:1;fill-rule:nonzero;stroke:none;stroke-width:.25;stroke-linecap:butt;stroke-linejoin:round;stroke-miterlimit:4;stroke-dasharray:none;stroke-dashoffset:0;stroke-opacity:.90944878;paint-order:normal" width="23.813" height="23.813" x="1.323" y="1.323" rx="1.323" ry="1.323"/><path style="fill:#222;fill-opacity:1;stroke:none;stroke-width:1.88976383;stroke-opacity:1" d="M105.055 82.9c-3.236-.012-6.506 1.73-8.076 5.153-.574 1.25-.719 2.008-.71 3.763.01 1.795.168 2.502.797 3.721.77 1.49 2.136 2.993 3.53 3.854.56.345 1.315.587 2.066.783.304.079.606.163.842.236.02.247.028.565.045 1.004.037 1.007.058 2.465.058 4.252 0 2.682-.014 4.048-.058 4.754-.073-.014-.052-.01-.133-.03-.435-.1-1.012-.252-1.697-.443a135.06 135.06 0 0 1-5.11-1.55c-7.468-2.414-12.04-3.235-15.252-2.377-1.23.328-2.229.726-3.41 1.593-1.18.868-2.573 2.178-4.886 4.43-1.763 1.716-2.953 2.743-3.897 3.307-.944.563-1.613.715-2.643.724-.642.006-.786-.071-.738-.015-.014-.089-.044-.22-.045-.473v-1.772H61.221v.99c-.2-.099-.39-.18-.621-.31-.739-.413-1.568-.946-2.022-1.314-.5-.406-.854-.708-1.137-.93-.282-.222-.366-.38-.857-.518a1.103 1.103 0 0 0-.22-.029 2.218 2.218 0 0 0-.325.03c-.008.001-.35.159-.355.164l-.147.146c-.003.003-.075.086-.103.133-.23.375-.17.556-.163.693.017.274.062.466.102.725.454 2.906 2.587 5.823 5.227 7.16l.62.31v1.329h-3.38l-1.285 4.002c-.595 1.839-1.891 5.808-2.88 8.828-.988 3.02-2.965 9.056-4.384 13.406-1.419 4.349-3.375 10.357-4.355 13.346l-1.58 4.783h-9.641l2.215 2.597c4.51 5.31 9.746 8.113 18.086 9.745 2.837.555 3.586.607 9.021.605 5.45-.002 6.187-.046 8.977-.605 7.829-1.569 13.71-4.608 17.642-9.243l2.48-2.937-5.67-.162-3.04-.088-.281-.9c-.273-.85-1.048-3.217-1.713-5.272-.664-2.05-1.814-5.665-2.555-8.018a382.414 382.414 0 0 0-1.772-5.505c-.211-.622-1.233-3.814-2.257-7.014-1.026-3.203-2.68-8.32-3.662-11.367l-1.979-6.172-2.465-.088-.887-.03V122.144l1.95-.09a46.44 46.44 0 0 0 2.289-.162c.676-.067 1.133-.115 1.55-.237 2.27-.659 4.225-1.617 6.895-3.38 1.874-1.238 2.974-1.911 3.809-2.229.834-.318 1.448-.345 2.613-.281 2.071.112 3.204.558 7.603 3.011 1.58.881 3.437 1.888 4.207 2.274 1.937.969 5.13 2.073 6.82 2.273l.282.03-.162 11.65-.149 12.283-2.302 4.65-2.51 5.05.162 14.705.149 13.523H85.816v5.904l-2.908 4.8c-1.673 2.758-3.846 6.359-4.842 7.987-1 1.638-1.912 3.121-2.17 3.618l-1.02 1.992h31.315c8.189 0 15.639-.026 21.037-.059 2.7-.016 4.892-.037 6.409-.058.758-.011 1.35-.018 1.758-.03.203-.006.35-.008.47-.015.06-.004.116-.008.178-.016.03-.004.058-.012.133-.03.038-.008.19-.073.191-.073l.252-.163.295-.693-.016-.178c0-.002-.02-.076-.029-.103-.016-.055-.032-.088-.045-.117-.025-.059-.05-.095-.072-.133-.042-.076-.08-.153-.133-.236a19.301 19.301 0 0 0-.414-.622c-.344-.5-.813-1.161-1.328-1.859a953.327 953.327 0 0 1-3.014-4.105 235.72 235.72 0 0 0-1.623-2.2c-.222-.296-1.692-2.299-3.232-4.4l-2.613-3.572v-5.625l-6.704-.075-4.843-.044-.102-13.79-.103-14.955-.622-1.093c-.196-.349-1.309-2.603-2.332-4.754l-1.771-3.719v-23.488l.725-.133c2.839-.555 5.114-1.595 11.529-5.168 3.619-2.016 5.63-2.563 7.648-2.29 1.14.156 2.214.685 5.477 2.85 3.6 2.39 6.814 3.492 10.305 3.5.556.002.685.022.812.03a3.92 3.92 0 0 1 0 .265c-.137.008-.32.03-.959.03h-2.393l-.677 1.875c-.284.79-1.606 4.86-3.014 9.213a2382.787 2382.787 0 0 1-3.615 11.088c-.582 1.758-2.204 6.737-3.617 11.087a1380.627 1380.627 0 0 1-3.205 9.774l-.413 1.224-3.425.06-5.936.089 1.697 2.287c2.752 3.725 7.771 7.024 13.141 8.727 7.108 2.253 16.457 2.65 24.184 1.046 3.375-.7 5.625-1.484 8.68-2.98 3.522-1.725 5.92-3.631 8.622-6.865l1.889-2.26h-8.769l-.25-.738c-.246-.721-1.075-3.273-1.817-5.625a590.367 590.367 0 0 0-1.756-5.506c-.215-.645-.962-2.939-1.638-5.051-.677-2.115-1.512-4.728-1.862-5.816-.603-1.879-2.747-8.584-5.463-17.082l-1.447-4.547h-3.38v-.282c0-.339.02-.438.032-.537 3.535-1.23 6.284-4.32 6.936-7.906l.666-3.617-3.322 2.672c-.526.425-1.56 1.082-2.569 1.638-.721.399-1.239.604-1.742.813v-1.36H144.475v1.788c0 .258-.03.387-.047.47-.08.001-.198.004-.442-.043-.795-.153-1.42-.402-2.302-1.017-.883-.616-2-1.618-3.604-3.19-2.583-2.531-4.222-4.022-5.816-4.916-1.595-.893-3.105-1.099-5.078-1.093-3.586.01-6.016.529-12.698 2.671-1.859.597-3.784 1.16-5.3 1.58-.735.205-1.357.371-1.846.489-.007-.22-.024-.38-.03-.664-.02-1.087-.015-2.605 0-4.268l.045-5.375.266-.072c2.472-.73 4.337-2.397 5.508-4.873.561-1.187.722-1.975.722-3.559 0-1.581-.167-2.373-.738-3.63-1.557-3.434-4.825-5.2-8.06-5.212zm39.256 44.246c.039.486.08 1.276.103 2.63.047 2.828.059 7.913.059 16.962 0 5.574-.021 10.676-.045 14.41-.012 1.868-.027 3.391-.043 4.457-.007.451-.008.774-.016 1.05-.151.016-.215.03-.502.044-1.012.046-2.88.059-6.172.059-2.814 0-4.673-.019-5.802-.059-.22-.008-.276-.02-.442-.03l.045-.148c.201-.657.474-1.53.781-2.464 1.264-3.841 2.591-7.868 4.547-13.848.909-2.777 2.722-8.373 4.342-13.361 1.615-4.973 2.994-9.21 3.145-9.702zm-83.21.444.061 19.31.059 19.858h-6.512c-2.045 0-3.926-.015-5.285-.045-.466-.01-.762-.032-1.092-.045l.117-.398c.267-.894.658-2.118 1.094-3.44.877-2.66 2.744-8.39 4.162-12.74 1.418-4.35 3.374-10.33 4.342-13.29.968-2.96 2.12-6.464 2.553-7.794.176-.541.346-1.005.502-1.416zm4.815.03c.067.16.077.155.162.384.526 1.419 1.42 4.188 3.1 9.447.983 3.082 2.61 8.182 3.617 11.324 1.007 3.141 2.633 8.229 3.617 11.309.985 3.081 1.934 6.038 2.111 6.586-.3.012-.56.034-.974.045-1.318.032-3.142.043-5.153.043-3.24 0-5.085-.013-6.082-.059-.27-.013-.324-.028-.472-.045-.007-.275-.01-.596-.016-1.047-.016-1.066-.03-2.591-.043-4.459-.024-3.734-.045-8.836-.045-14.41 0-10.969-.014-16.217.117-18.601.023-.414.02-.271.061-.518zm83.223.058c.007.019.008.01.015.029.414 1.127 1.137 3.393 2.51 7.766.62 1.975 2.456 7.703 4.932 15.384 1.76 5.458 3.078 9.59 3.955 12.387.438 1.399.773 2.46.99 3.19l.074.25c-.104.007-.106.01-.236.015-1.023.044-2.856.059-5.965.059h-6.422v-19.813c0-11.279-.014-16.608.117-18.97.008-.143.02-.176.03-.297z" transform="matrix(.1323 0 0 .1323 -2.646 -8.274)"/><path style="opacity:1;fill:#222;fill-opacity:1;fill-rule:nonzero;stroke:none;stroke-width:.24999999;stroke-linecap:butt;stroke-linejoin:round;stroke-miterlimit:4;stroke-dasharray:none;stroke-dashoffset:0;stroke-opacity:.90944878;paint-order:normal" d="M.728 18.52v4.168a2.772 2.772 0 0 0 2.778 2.778h19.447a2.772 2.772 0 0 0 2.778-2.778v-4.167z"/><g style="font-style:normal;font-variant:normal;font-weight:500;font-stretch:normal;font-size:4.23333311px;line-height:4.23333311px;font-family:Montserrat;-inkscape-font-specification:'Montserrat Medium';text-align:center;text-anchor:middle;opacity:1;fill:#eee;fill-opacity:1;fill-rule:nonzero;stroke:none;stroke-width:.25;stroke-linecap:butt;stroke-linejoin:round;stroke-miterlimit:4;stroke-dasharray:none;stroke-dashoffset:0;stroke-opacity:.90944878;paint-order:normal" aria-label="EQUALITY"><path style="font-style:normal;font-variant:normal;font-weight:500;font-stretch:normal;font-size:4.23333311px;font-family:Montserrat;-inkscape-font-specification:'Montserrat Medium';fill:#eee;fill-opacity:1;stroke-width:.25" d="M2.736 20.325h2.171v.496H3.303v.732h1.44v.495h-1.44v.745h1.655v.496H2.736zM8.625 23.627q-.17.153-.39.237-.22.09-.431.09-.28 0-.521-.166-.241-.16-.41-.457-.44 0-.8-.203-.36-.203-.568-.55-.207-.352-.207-.775 0-.424.207-.77.207-.348.567-.547.364-.199.805-.199.44 0 .8.2.364.198.571.545.208.347.208.77 0 .33-.132.623-.127.288-.36.5-.232.211-.537.317.224.237.444.237.229 0 .534-.237zm-2.747-1.824q0 .28.135.512.14.233.368.368.233.136.504.136.267 0 .495-.136.229-.135.36-.368.136-.233.136-.512 0-.28-.136-.508-.131-.233-.36-.364-.228-.136-.495-.136-.27 0-.504.136-.233.13-.368.364-.135.228-.135.508zM9.499 22.07q0 .35.199.55.199.199.533.199.335 0 .525-.2.195-.198.195-.55v-1.744h.567v1.744q0 .386-.157.674-.156.283-.448.436-.288.152-.682.152-.398 0-.694-.152-.292-.153-.449-.436-.157-.288-.157-.674v-1.744H9.5zM14.296 23.289l-.262-.627h-1.448l-.262.627h-.589l1.3-2.964h.588l1.283 2.964zm-1.507-1.114h1.042l-.517-1.244zM15.262 20.325h.567v2.451h1.279v.513h-1.846zM17.552 20.325h.568v2.964h-.568zM18.52 20.325h2.418v.504h-.923v2.46h-.572v-2.46h-.923zM23.723 20.325l-1.08 1.994v.97h-.567v-.949l-1.105-2.015h.576l.808 1.393.796-1.393z"/></g></g><text xml:space="preserve" style="font-style:normal;font-variant:normal;font-weight:500;font-stretch:normal;font-size:8.46666622px;line-height:4.23333311px;font-family:Montserrat;-inkscape-font-specification:'Montserrat Medium';text-align:center;text-anchor:middle;opacity:1;fill:#eee;fill-opacity:1;fill-rule:nonzero;stroke:none;stroke-width:4.23333311;stroke-linecap:butt;stroke-linejoin:round;stroke-miterlimit:4;stroke-dasharray:none;stroke-dashoffset:0;stroke-opacity:1;paint-order:stroke fill markers" x="-355.537" y="24.113" transform="translate(39.609 -92.411)"><tspan x="-355.537" y="24.113" style="font-style:normal;font-variant:normal;font-weight:500;font-stretch:normal;font-size:8.46666622px;font-family:Montserrat;-inkscape-font-specification:'Montserrat Medium';text-align:center;text-anchor:middle;fill:#eee;fill-opacity:1;stroke-width:4.23333311">ORD</tspan></text></svg>