<svg xmlns="http://www.w3.org/2000/svg" viewBox="0 0 52.917 52.917"><g style="stroke-width:.5" transform="matrix(2 0 0 2 341.313 66.675)"><rect height="26.458" width="26.458" style="opacity:1;fill:#222;fill-opacity:1;fill-rule:nonzero;stroke:none;stroke-width:.25;stroke-linecap:butt;stroke-linejoin:round;stroke-miterlimit:4;stroke-dasharray:none;stroke-dashoffset:0;stroke-opacity:.90944878;paint-order:normal" rx="1.984" ry="1.984"/><rect style="opacity:1;fill:#3f51b5;fill-opacity:1;fill-rule:nonzero;stroke:none;stroke-width:.25;stroke-linecap:butt;stroke-linejoin:round;stroke-miterlimit:4;stroke-dasharray:none;stroke-dashoffset:0;stroke-opacity:.90944878;paint-order:normal" width="23.813" height="23.813" x="1.323" y="1.323" rx="1.323" ry="1.323"/><path style="fill:#222;fill-opacity:1;stroke:none;stroke-width:.05;stroke-opacity:1" d="M17.239 5.259a.948.948 0 0 0-.571.002c-.25.081-.284.133-.424.64-.064.234-.137.492-.163.575-.026.083-.061.21-.079.28a9.955 9.955 0 0 1-.085.314c-.092.317-.2.707-.203.733a3.758 3.758 0 0 1-.06.222c-.031.109-.076.274-.1.367l-.16.606c-.065.24-.116.443-.114.449a2.473 2.473 0 0 0-.386 2.03c.01.135.09.32.188.43.084.094.12.115.24.142.13.028.158.025.321-.027a.677.677 0 0 0 .293-.16c.177-.158.19-.191.43-1.07l.22-.81.072-.249c.033-.115.061-.221.063-.235 0-.015.034-.138.073-.276.04-.137.104-.367.143-.51.04-.144.105-.376.145-.514.04-.14.072-.258.07-.265a2.609 2.609 0 0 1 .064-.245c.153-.529.45-1.612.48-1.749a.524.524 0 0 0-.021-.261c-.038-.143-.054-.17-.153-.26a.763.763 0 0 0-.283-.16zm-9.912-2.64a.952.952 0 0 0-.52-.011c-.142.035-.185.057-.257.126-.076.074-.102.14-.235.596-.083.282-.158.547-.166.59a3.59 3.59 0 0 1-.073.261c-.032.102-.062.21-.067.241-.004.03-.023.103-.04.161-.033.104-.17.604-.317 1.154-.04.15-.104.385-.142.52a12.53 12.53 0 0 0-.092.352c-.013.058-.06.247-.105.419-.29 1.127-.36 1.498-.331 1.791a.67.67 0 0 0 .086.32.51.51 0 0 0 .374.278.445.445 0 0 0 .292-.022c.27-.09.508-.355.555-.617.01-.056.045-.191.078-.3.033-.109.067-.232.076-.275.009-.042.042-.165.073-.274a66.448 66.448 0 0 0 .283-1.008l.103-.38c.049-.187.06-.23.172-.628.043-.151.089-.321.102-.378.013-.057.047-.18.076-.271.028-.093.05-.172.05-.178-.002-.005.03-.124.069-.264l.144-.517.131-.474c.164-.577.176-.76.06-.937a.701.701 0 0 0-.379-.275zm1.7.762-.039.136c-.128.46-.196.71-.194.718.001.005-.035.141-.08.302-.09.317-.17.615-.28 1.024-.038.144-.097.356-.13.471-.032.115-.076.28-.096.365-.02.086-.047.186-.06.223a5.357 5.357 0 0 0-.08.287c-.03.122-.07.269-.087.327-.064.217-.19.678-.187.686a4.7 4.7 0 0 1-.073.27 3.722 3.722 0 0 0-.073.274.767.767 0 0 1-.032.122c-.033.107-.167.592-.239.87a.42.42 0 0 0-.02.16c.008.018.115.058.237.092l.47.128c.137.037.375.102.529.146.153.044.284.078.29.076.007-.002.105.024.218.058.168.049.433.122.767.21.32.085.589.158.828.225.16.045.296.081.301.08a4.44 4.44 0 0 1 .287.075 54.278 54.278 0 0 0 .74.203c.158.043.38.102.492.13.113.03.279.076.37.105.09.028.17.05.178.048.006-.002.091.02.188.048a.897.897 0 0 0 .18.043c.007-.012.12-.43.177-.649.024-.093.068-.25.097-.35.03-.099.052-.185.05-.192a2.358 2.358 0 0 1 .058-.225c.065-.226.187-.67.302-1.102.039-.143.097-.355.13-.47.032-.116.075-.28.095-.366.02-.085.048-.185.061-.222a5.34 5.34 0 0 0 .08-.288c.03-.122.07-.268.087-.326.068-.233.19-.678.187-.687a5.333 5.333 0 0 1 .08-.302l.14-.502c.086-.303.148-.562.137-.566a14.902 14.902 0 0 0-.56-.157 4.02 4.02 0 0 1-.266-.07c-.141-.04-.386-.106-.544-.148a30.365 30.365 0 0 1-.52-.144 3.068 3.068 0 0 0-.242-.064 4.005 4.005 0 0 1-.273-.073 3.373 3.373 0 0 0-.274-.072 1.073 1.073 0 0 1-.149-.04 5.511 5.511 0 0 0-.28-.079c-.079-.02-.243-.063-.366-.097l-.483-.132c-.396-.106-.702-.19-1.02-.278a7.707 7.707 0 0 0-.313-.083 18.786 18.786 0 0 1-.672-.182zm6.935 2.137a6.173 6.173 0 0 0-.315-.083 3.653 3.653 0 0 1-.239-.062c-.021-.01-.049.056-.088.212-.09.354-.102.398-.176.667-.04.14-.07.259-.068.265.002.005-.03.13-.072.275-.04.146-.073.27-.071.275.003.01-.029.13-.198.74-.045.163-.08.3-.08.306.003.008-.138.544-.215.82a188.579 188.579 0 0 1-.522 1.994.602.602 0 0 0-.026.122c.004.019.078.041.458.14.127.033.232.056.233.051.01-.029.125-.476.152-.591.018-.078.062-.248.098-.378.082-.3.301-1.134.342-1.305.017-.071.055-.21.084-.308.029-.098.051-.184.05-.19-.003-.008.03-.13.072-.272a2.76 2.76 0 0 0 .072-.273c-.002-.008.03-.132.072-.276a4.12 4.12 0 0 0 .072-.272 1.295 1.295 0 0 1 .037-.149c.021-.076.07-.256.107-.4a290.244 290.244 0 0 1 .28-1.08l.05-.194zM8.127 3.452c-.093-.022-.115-.02-.125.01a24.022 24.022 0 0 0-.335 1.256c-.033.12-.093.34-.132.49l-.143.536a9.623 9.623 0 0 0-.087.338 5.333 5.333 0 0 1-.072.273 8.607 8.607 0 0 0-.08.3c-.029.12-.134.52-.336 1.278-.035.13-.105.4-.155.6-.051.2-.106.405-.123.456a.422.422 0 0 0-.026.117c.003.012.056.034.118.048.062.015.212.054.332.087.12.033.225.06.231.058.012-.003.11-.357.185-.668.017-.071.067-.264.111-.43l.138-.516c.031-.12.086-.323.121-.452.035-.13.063-.24.062-.245a4.082 4.082 0 0 1 .072-.273c.04-.145.073-.27.071-.276-.002-.007.03-.13.073-.272.042-.142.074-.265.072-.274a2.241 2.241 0 0 1 .066-.252c.038-.13.068-.242.066-.248a1.181 1.181 0 0 1 .04-.16c.024-.082.075-.275.115-.429l.146-.56c.16-.606.164-.629.132-.643a8.492 8.492 0 0 0-.537-.149zm1.333 7.106-.009.03c-.04.126-.077.26-.076.27.001.011-.047.172-.092.311a.422.422 0 0 0-.026.097.541.541 0 0 1-.026.108 8.627 8.627 0 0 0-.06.207l-.056.189c-.013.046-.03.103-.034.126-.006.023-.021.082-.036.13a20.444 20.444 0 0 0-.114.4c-.018.06-.045.157-.06.215-.03.111-.086.309-.122.43a6.89 6.89 0 0 0-.053.188c-.016.064-.045.168-.064.231-.071.246-.083.287-.11.394a6.08 6.08 0 0 1-.074.264l-.054.187c-.059.209-.076.27-.103.357a.42.42 0 0 0-.022.095c.002.004.09.032.196.06.258.073.695.192.81.222l.422.112c.181.049.333.088.338.088.009 0 .029-.063.096-.304l.059-.199a.888.888 0 0 0 .03-.11c-.001-.006.012-.058.029-.116l.066-.23c.02-.07.047-.16.061-.2a.31.31 0 0 0 .02-.08 2.446 2.446 0 0 1 .076-.277 4.428 4.428 0 0 0 .074-.256 44.304 44.304 0 0 0 .118-.42l.064-.23c.015-.056.038-.134.051-.174.013-.04.029-.096.035-.124a.987.987 0 0 1 .029-.1.79.79 0 0 0 .025-.09c.01-.056.057-.22.095-.334a.46.46 0 0 0 .025-.097.281.281 0 0 1 .02-.076c.013-.039.044-.146.068-.239.024-.092.055-.2.068-.238a.274.274 0 0 0 .02-.076.362.362 0 0 1 .025-.087.789.789 0 0 0 .035-.125l.007-.044-.075-.023a8.224 8.224 0 0 0-.23-.063 38.098 38.098 0 0 1-.378-.1 92.23 92.23 0 0 0-.811-.22 6.619 6.619 0 0 1-.184-.051zm.92 5.044c-.162-.042-.391-.102-.51-.135a2.368 2.368 0 0 0-.229-.055 1.71 1.71 0 0 1-.192-.046c-.22-.06-.747-.196-.923-.238-.395-.094-.808-.2-.832-.214-.015-.008-.034-.013-.043-.01-.015.003-.09.256-.102.342-.003.02-.045.184-.092.363l-.086.325.062.026c.034.014.07.024.08.022.008-.002.154.032.322.076.566.146.644.166.983.251.443.11.418.104.598.153.087.023.215.054.285.068.07.014.158.036.195.049.074.026.51.13.527.126.006-.001.031-.088.056-.19.025-.104.081-.327.124-.495.044-.17.077-.315.074-.325a1.611 1.611 0 0 0-.298-.094zm-2.292.76c-.154-.042-.292-.07-.305-.062-.022.012-.06.141-.175.6-.038.154-.072.28-.22.832-.043.155-.092.342-.11.416-.066.259-.129.49-.187.69a1.95 1.95 0 0 0-.055.213c.002.006-.022.096-.053.2a1.937 1.937 0 0 0-.053.2c.002.004-.024.101-.058.215-.034.114-.06.212-.057.218.002.006-.022.095-.053.198a1.965 1.965 0 0 0-.06.223.923.923 0 0 1-.037.144c-.019.058-.048.162-.063.23l2.082.58c.036-.136.276-.974.308-1.086a2.35 2.35 0 0 0 .055-.213 1.79 1.79 0 0 1 .045-.18c.118-.422.178-.647.175-.655a2.264 2.264 0 0 1 .059-.215c.034-.113.06-.21.058-.215a2.804 2.804 0 0 1 .062-.246c.135-.483.161-.581.158-.59a2.532 2.532 0 0 1 .058-.215c.034-.114.06-.212.058-.217a1.113 1.113 0 0 1 .04-.153c.054-.181.115-.43.105-.433a59.107 59.107 0 0 0-.739-.201l-1.038-.278z"/><path style="opacity:1;fill:#222;fill-opacity:1;fill-rule:nonzero;stroke:none;stroke-width:.24999997;stroke-linecap:butt;stroke-linejoin:round;stroke-miterlimit:4;stroke-dasharray:none;stroke-dashoffset:0;stroke-opacity:.90944878;paint-order:normal" d="M.728 18.52v4.168a2.772 2.772 0 0 0 2.778 2.778h19.447a2.772 2.772 0 0 0 2.778-2.778v-4.167z"/><g style="font-style:normal;font-variant:normal;font-weight:500;font-stretch:normal;font-size:4.23333311px;line-height:4.23333311px;font-family:Montserrat;-inkscape-font-specification:'Montserrat Medium';text-align:center;letter-spacing:-.26458332px;text-anchor:middle;opacity:1;fill:#eee;fill-opacity:1;fill-rule:nonzero;stroke:none;stroke-width:.25;stroke-linecap:butt;stroke-linejoin:round;stroke-miterlimit:4;stroke-dasharray:none;stroke-dashoffset:0;stroke-opacity:.90944878;paint-order:normal" aria-label="AUTHORITY"><path style="font-style:normal;font-variant:normal;font-weight:500;font-stretch:normal;font-size:4.23333311px;font-family:Montserrat;-inkscape-font-specification:'Montserrat Medium';letter-spacing:-.26458332px;fill:#eee;fill-opacity:1;stroke-width:.25" d="m4.102 23.289-.263-.627H2.392l-.263.627h-.588l1.3-2.964h.588L4.71 23.29zm-1.507-1.114h1.041l-.516-1.244zM5.232 22.07q0 .35.2.55.198.199.533.199.334 0 .525-.2.194-.198.194-.55v-1.744h.568v1.744q0 .386-.157.674-.157.283-.449.436-.288.152-.681.152-.398 0-.695-.152-.292-.153-.448-.436-.157-.288-.157-.674v-1.744h.567zM7.325 20.325h2.417v.504H8.82v2.46h-.571v-2.46h-.923zM9.88 20.325h.567v1.266h1.477v-1.266h.567v2.964h-.567v-1.203h-1.477v1.203h-.568zM14.301 20.287q.44 0 .8.2.365.198.572.545.207.347.207.77 0 .424-.207.775-.207.348-.571.55-.36.204-.8.204-.44 0-.805-.203-.36-.203-.567-.55-.208-.352-.208-.775 0-.424.208-.77.207-.348.567-.547.364-.199.804-.199zm.009.508q-.271 0-.504.136-.233.13-.368.364-.136.228-.136.508t.136.512q.14.233.368.368.233.136.504.136.267 0 .495-.136.229-.135.36-.368.136-.233.136-.512 0-.28-.136-.508-.131-.233-.36-.364-.228-.136-.495-.136zM17.968 23.289l-.512-.877q-.034.005-.106.005h-.669v.872h-.567v-2.964h1.236q.576 0 .889.267.313.267.313.753 0 .348-.152.593-.148.246-.436.368l.652.983zm-1.287-1.372h.669q.322 0 .49-.14.17-.14.17-.415 0-.27-.17-.406-.168-.135-.49-.135h-.669zM18.908 20.325h.568v2.964h-.568zM19.612 20.325h2.417v.504h-.923v2.46h-.571v-2.46h-.923z"/><path style="font-style:normal;font-variant:normal;font-weight:500;font-stretch:normal;font-size:4.23333311px;font-family:Montserrat;-inkscape-font-specification:'Montserrat Medium';letter-spacing:-.26458332px;fill:#eee;fill-opacity:1;stroke-width:.25" d="m24.55 20.325-1.08 1.994v.97h-.567v-.949l-1.105-2.015h.575l.81 1.393.795-1.393z"/></g></g><g style="stroke-width:.5" transform="matrix(2 0 0 2 285.75 66.675)"><rect ry="1.984" rx="1.984" style="opacity:1;fill:#222;fill-opacity:1;fill-rule:nonzero;stroke:none;stroke-width:.25;stroke-linecap:butt;stroke-linejoin:round;stroke-miterlimit:4;stroke-dasharray:none;stroke-dashoffset:0;stroke-opacity:.90944878;paint-order:normal" width="26.458" height="26.458"/><rect ry="1.323" rx="1.323" y="1.323" x="1.323" height="23.813" width="23.813" style="opacity:1;fill:#03a9f4;fill-opacity:1;fill-rule:nonzero;stroke:none;stroke-width:.25;stroke-linecap:butt;stroke-linejoin:round;stroke-miterlimit:4;stroke-dasharray:none;stroke-dashoffset:0;stroke-opacity:.90944878;paint-order:normal"/><path style="fill:#222;fill-opacity:1;stroke-width:3.77952766" d="M317.793 291.84c-2.201 0-4.403.057-5.662.174-14.445 1.334-27.065 6.463-38.18 15.53-2.392 1.952-7.102 6.657-9.123 9.11-8.96 10.875-14.143 23.407-15.576 37.633-.29 2.884-.333 9.188-.074 11.988 1.354 14.67 6.652 27.501 15.974 38.696.771.925 2.538 2.805 4.016 4.283 3.695 3.695 6.551 6.048 10.777 8.857 9.552 6.35 21.03 10.292 32.407 11.118 1.12.08 2.343.164 2.716.19 1.594.117 6.771-.053 9.067-.265 8.598-.79 16.612-3.072 24.375-6.94 20.17-10.048 34.235-29.5 37.38-51.687.53-3.73.7-6.124.694-10.039-.011-7.712-1.125-14.568-3.557-21.836-2.715-8.116-6.908-15.554-12.593-22.38-1.78-2.138-6.199-6.558-8.297-8.3-11.276-9.356-23.999-14.602-38.682-15.958-1.26-.117-3.46-.174-5.662-.174zm-16.07 10.818c-3.44 3.762-7.205 8.701-10.084 13.465-1.396 2.31-3.498 6.328-4.739 9.064-.205.453-.39.855-.546 1.182-.08-.03-.115-.037-.208-.074-.581-.236-1.409-.61-2.318-1.033-1.818-.848-4.015-1.945-5.61-2.834a108.957 108.957 0 0 1-3.558-2.082c-.449-.275-.807-.507-1.12-.71.147-.169.268-.32.456-.517 4.905-5.104 10.096-8.99 16.27-12.193 3.384-1.756 7.66-3.205 11.457-4.268zm32.095.016c9.236 2.55 18.33 7.382 25.13 13.847a80.463 80.463 0 0 1 2.759 2.73c.15.16.225.242.34.37-.326.21-.697.458-1.15.738a99.01 99.01 0 0 1-3.28 1.95c-.783.438-2.567 1.355-3.896 2.007-1.329.653-3.11 1.47-3.87 1.787l-.619.266-.177-.414c-.948-2.125-3.77-7.62-4.768-9.285-3.006-5.01-6.795-9.956-10.469-13.996zm-20.285.072c.01.775.022 1.602.03 2.777.018 2.965.029 7.059.029 11.559v15.414h-.237c-3.217-.05-9.49-.916-13.892-1.933a76.7 76.7 0 0 1-4.162-1.079c-.386-.113-.639-.206-.9-.295.17-.392.397-.884.663-1.447a84.909 84.909 0 0 1 1.86-3.691c3.557-6.583 7.245-11.718 12.299-17.112.746-.796 2.18-2.202 3.425-3.38.338-.32.59-.54.885-.813zm8.52 0c.19.175.337.295.545.488 1.033.961 2.228 2.1 2.91 2.805 5.368 5.553 9.393 11.053 13.11 17.908.529.978 1.252 2.455 1.845 3.707.283.599.54 1.132.723 1.55-.3.1-.616.2-1.063.325a86.122 86.122 0 0 1-15.68 2.85c-.862.073-2.01.13-2.45.133v-15.444c0-5.064.022-9.157.044-11.974.008-1.027.005-1.675.016-2.348zm-53.844 23.578c.21.13.407.247.664.414 4.225 2.74 9.472 5.5 14.025 7.381.261.108.326.153.473.223-.104.344-.187.619-.369 1.21-1.988 6.468-3.371 14.257-3.682 20.802l-10.904.03-10.809.03.032-.459c.102-1.751.403-4.065.84-6.436 1.034-5.614 3.062-11.486 5.685-16.537 1.17-2.254 3.008-5.203 4.045-6.658zm99.123.045c4.23 6.258 7.236 12.594 8.963 19.502.874 3.496 1.628 8.558 1.652 10.543H367.2c-3.223 0-6.158.001-8.297-.016-1.069-.008-1.938-.018-2.539-.029h-.133v-.015c-.002-3.06-.848-9.346-1.86-13.997-.48-2.202-1.643-6.56-2.155-8.015.158-.072.294-.144.486-.223 4.516-1.865 9.808-4.654 14.012-7.38.238-.155.421-.254.619-.37zm-22.797 9.74c.257-.081.327.06.828 1.65 1.719 5.46 3.127 13.301 3.3 18.382l.038 1.156-13.76.033c-10.936.027-13.772 0-13.824-.135-.036-.094-.05-3.96-.031-8.593l.035-8.424 1.36-.098c6.8-.493 11.671-1.228 16.882-2.547 1.833-.463 4.2-1.115 5.172-1.424zm-53.103 1.024c6.499 2.004 13.597 3.328 21.54 3.883l.548.043v15.295l-12.801.03c-4.288.011-7.74.017-10.114 0-1.186-.007-2.098-.03-2.716-.044h-.059c.016-.322.038-.663.074-1.123.091-1.15.245-2.632.412-3.987.52-4.204 1.649-9.509 2.807-13.183.174-.553.232-.706.309-.914zm-33.825 27.695h21.661c.039.457.14 1.753.22 2.865.447 6.15 1.649 12.549 3.485 18.588l.22.707c-.286.122-.604.264-.959.414-4.286 1.813-10.064 4.9-13.568 7.25-.172.116-.32.21-.473.309-.04-.054-.059-.071-.103-.133a38.167 38.167 0 0 1-1.328-2.008c-1.022-1.64-2.21-3.715-3.012-5.314-3.31-6.597-5.714-15.346-6.111-22.219zm30.178 0 12.83.03 12.905.044v15.282l-.547.044c-7.816.546-13.75 1.563-20.551 3.528l-.664.193c-.185.052-.392.104-.547.147-.074-.221-.142-.425-.236-.739a77.438 77.438 0 0 1-.99-3.601c-1.123-4.525-1.894-9.634-2.17-14.336zm60.016 0-.03.592c-.349 5.93-1.43 12.074-3.13 17.863-.115.391-.183.638-.25.842-.046-.014-.037-.013-.09-.03-6.221-1.975-13.792-3.332-21.613-3.868l-.622-.043v-15.298l12.905-.029zm8.504 0h21.658c-.01.384-.076 1.392-.178 2.274-1.146 9.928-4.34 18.756-9.744 26.93-.242.365-.447.658-.635.929-.089-.058-.154-.098-.25-.162-3.606-2.42-9.503-5.578-13.804-7.397-.355-.15-.673-.293-.96-.414l.221-.707c1.882-6.19 3.236-13.569 3.559-19.488.04-.724.096-1.571.133-1.965zm-42.713 23.918V405.311c-.001 4.22-.018 8.165-.03 10.984-.004 1.228-.006 2.108-.013 2.908l-.031-.03a102.604 102.604 0 0 1-2.938-2.82c-5.817-5.835-10.52-12.328-14.32-19.753a94.705 94.705 0 0 1-1.594-3.32c-.21-.457-.39-.838-.533-1.169.12-.039.174-.07.326-.117.799-.242 2.025-.569 3.66-.974 4.687-1.164 10.495-2.044 14.559-2.229zm8.4 0 .887.045c2.493.116 6.092.532 9.258 1.092 1.945.344 4.525.935 6.597 1.463 1.036.263 1.952.509 2.584.707.067.02.089.025.149.045a93.13 93.13 0 0 1-.9 1.994c-4.115 8.899-10.478 17.64-17.643 24.285-.324.3-.584.538-.871.799-.004-.18-.012-.167-.016-.385-.03-2.163-.045-6.358-.045-14.307zm-35.89 6.244c.101.206.172.342.384.828 3.598 8.233 8.853 16.138 14.823 22.854a81.323 81.323 0 0 1-3.174-1.004 60.548 60.548 0 0 1-20.078-11.62c-.455-.395-1.796-1.71-2.983-2.892-.582-.58-1.13-1.131-1.535-1.55a46.036 46.036 0 0 1 1.727-1.079c1.514-.904 3.46-2 5.123-2.863.941-.488 2.361-1.176 3.617-1.758a46.314 46.314 0 0 1 2.096-.916zm63.38 0c.768.293 2.155.911 3.899 1.774 1.98.98 4.148 2.126 5.64 2.996 1.493.87 2.489 1.463 3.042 1.845-.305.322-.702.743-1.153 1.196a90.558 90.558 0 0 1-2.73 2.629c-6.566 5.996-15.113 10.459-23.698 12.918 5.906-6.713 11.04-14.352 14.618-22.53.212-.486.28-.622.382-.828z" transform="matrix(.1323 0 0 .1323 -30.427 -36.055)"/><path d="M.728 18.52v4.168a2.772 2.772 0 0 0 2.778 2.778h19.447a2.772 2.772 0 0 0 2.778-2.778v-4.167z" style="opacity:1;fill:#222;fill-opacity:1;fill-rule:nonzero;stroke:none;stroke-width:.24999997;stroke-linecap:butt;stroke-linejoin:round;stroke-miterlimit:4;stroke-dasharray:none;stroke-dashoffset:0;stroke-opacity:.90944878;paint-order:normal"/><text xml:space="preserve" style="font-style:normal;font-variant:normal;font-weight:500;font-stretch:normal;font-size:4.23333311px;line-height:2.11666656px;font-family:Montserrat;-inkscape-font-specification:'Montserrat Medium';text-align:center;text-anchor:middle;opacity:1;fill:#eee;fill-opacity:1;fill-rule:nonzero;stroke:none;stroke-width:2.11666656;stroke-linecap:butt;stroke-linejoin:round;stroke-miterlimit:4;stroke-dasharray:none;stroke-dashoffset:0;stroke-opacity:1;paint-order:stroke fill markers" x="13.204" y="23.289"><tspan x="13.204" y="23.289" style="font-style:normal;font-variant:normal;font-weight:500;font-stretch:normal;font-size:4.23333311px;font-family:Montserrat;-inkscape-font-specification:'Montserrat Medium';text-align:center;text-anchor:middle;fill:#eee;fill-opacity:1;stroke-width:2.11666656">WORLD</tspan></text></g><g style="stroke-width:.5" transform="matrix(2 0 0 2 230.188 66.675)"><rect ry="1.984" rx="1.984" style="opacity:1;fill:#222;fill-opacity:1;fill-rule:nonzero;stroke:none;stroke-width:.25;stroke-linecap:butt;stroke-linejoin:round;stroke-miterlimit:4;stroke-dasharray:none;stroke-dashoffset:0;stroke-opacity:.90944878;paint-order:normal" width="26.458" height="26.458"/><rect ry="1.323" rx="1.323" y="1.323" x="1.323" height="23.813" width="23.813" style="opacity:1;fill:#00897b;fill-opacity:1;fill-rule:nonzero;stroke:none;stroke-width:.25;stroke-linecap:butt;stroke-linejoin:round;stroke-miterlimit:4;stroke-dasharray:none;stroke-dashoffset:0;stroke-opacity:.90944878;paint-order:normal"/><path d="M.728 18.52v4.168a2.772 2.772 0 0 0 2.778 2.778h19.447a2.772 2.772 0 0 0 2.778-2.778v-4.167z" style="opacity:1;fill:#222;fill-opacity:1;fill-rule:nonzero;stroke:none;stroke-width:.24999999;stroke-linecap:butt;stroke-linejoin:round;stroke-miterlimit:4;stroke-dasharray:none;stroke-dashoffset:0;stroke-opacity:.90944878;paint-order:normal"/><path style="fill:#222;fill-opacity:1;stroke-width:.5" d="m9.402 18.52-.018-.806-.613-.101c-.657-.11-1.53-.363-2.002-.582-.775-.36-1.573-1.094-1.85-1.703-.146-.32-.176-.476-.175-.89.001-.597.15-.937.554-1.27.418-.344.896-.507 1.503-.513.594-.005.968.116 1.36.439 1.278 1.052.584 2.796-1.181 2.968l-.414.04.18.172c.343.326 1.114.627 2.076.81.664.125.595.426.595-2.558v-2.621l-.34-.142-.9-.376C6.732 10.78 5.72 9.894 5.344 8.899c-.295-.779-.207-2.047.2-2.865.567-1.14 1.882-2.008 3.502-2.312l.372-.07V2.13h.516V3.602h1.292V2.129h.58v.766c0 .421.023.766.05.766.214.002.952.148 1.352.267 1.647.49 2.623 1.357 2.716 2.412.04.467-.09.824-.425 1.162-.38.384-.662.487-1.335.487-.532 0-.611-.015-.935-.182a1.63 1.63 0 0 1-.845-1.048c-.069-.28-.062-.363.058-.722.142-.428.28-.585.765-.872.202-.12.36-.162.63-.17.197-.005.358-.029.359-.053.002-.154-1.026-.568-1.711-.688-.213-.037-.453-.08-.534-.096l-.146-.029.017 2.42.017 2.42.634.227c1.37.491 2.561 1.115 3.2 1.675.884.776 1.161 1.294 1.216 2.272.061 1.073-.157 1.861-.735 2.663-.522.723-1.273 1.2-2.433 1.547a9.29 9.29 0 0 1-1.307.28l-.607.069v1.625h-.581v-1.59H9.933v1.59H9.42zm1.58-1.312.243-.001v-4.7l-.582-.212c-.32-.116-.61-.212-.646-.212-.041 0-.064.904-.064 2.559V17.2l.275.024c.15.013.332.015.403.004.071-.01.238-.02.372-.02zm1.532-.34c.486-.209 1.051-.71 1.232-1.093.2-.424.203-1.13.006-1.539-.274-.565-.727-.944-1.621-1.357l-.325-.15V17.102l.175-.04c.097-.022.337-.11.533-.194zm-1.29-10.44V4.074h-.403c-.222.001-.513.018-.646.038l-.243.037.016 2.122.017 2.123.162.043c.089.024.365.111.613.194.249.083.46.151.469.153.008 0 .016-1.058.016-2.354zm-1.807-.205c0-2.178.04-2.053-.554-1.742-.484.253-.95.746-1.09 1.153-.24.692-.044 1.309.59 1.864.237.206.906.63 1.005.636.027.001.049-.859.049-1.911z"/><text xml:space="preserve" style="font-style:normal;font-variant:normal;font-weight:500;font-stretch:normal;font-size:4.23333311px;line-height:2.11666656px;font-family:Montserrat;-inkscape-font-specification:'Montserrat Medium';text-align:center;letter-spacing:0;text-anchor:middle;opacity:1;fill:#eee;fill-opacity:1;fill-rule:nonzero;stroke:none;stroke-width:2.11666656;stroke-linecap:butt;stroke-linejoin:round;stroke-miterlimit:4;stroke-dasharray:none;stroke-dashoffset:0;stroke-opacity:1;paint-order:stroke fill markers" x="13.087" y="23.473"><tspan x="13.087" y="23.473" style="font-style:normal;font-variant:normal;font-weight:500;font-stretch:normal;font-size:4.23333311px;font-family:Montserrat;-inkscape-font-specification:'Montserrat Medium';text-align:center;letter-spacing:0;text-anchor:middle;fill:#eee;fill-opacity:1;stroke-width:2.11666656">MARKETS</tspan></text></g><g style="stroke-width:.5" transform="matrix(2 0 0 2 0 0)"><rect height="26.458" width="26.458" style="opacity:1;fill:#222;fill-opacity:1;fill-rule:nonzero;stroke:none;stroke-width:.25;stroke-linecap:butt;stroke-linejoin:round;stroke-miterlimit:4;stroke-dasharray:none;stroke-dashoffset:0;stroke-opacity:.90944878;paint-order:normal" rx="1.984" ry="1.984"/><rect style="opacity:1;fill:#8bc34a;fill-opacity:1;fill-rule:nonzero;stroke:none;stroke-width:.25;stroke-linecap:butt;stroke-linejoin:round;stroke-miterlimit:4;stroke-dasharray:none;stroke-dashoffset:0;stroke-opacity:.90944878;paint-order:normal" width="23.813" height="23.813" x="1.323" y="1.323" rx="1.323" ry="1.323"/><path style="fill:#222;fill-opacity:1;stroke-width:.49999997" d="m2.974 20.165.565-.914.518-.838V5.783l-.574-.923c-.316-.508-.559-.939-.54-.958.018-.018 1.812.01 3.987.062 3.14.075 4.75.075 7.831 0 2.133-.05 3.896-.076 3.917-.054.022.021-.222.465-.541.985l-.58.946V18.378l.571.92c.315.505.572.925.572.931 0 .007-3.548.012-7.886.012-5.238 0-7.87-.026-7.84-.076zm4.133-1.66c0-.01-.087-.273-.193-.585-.254-.748-.347-1.44-.263-1.955.146-.9.54-1.37 1.94-2.316 1.226-.828 1.339-.954 1.339-1.492 0-.567-.19-.799-1.258-1.537-1.49-1.03-1.902-1.516-2.02-2.384-.071-.524.026-1.44.218-2.058l.145-.466h-2.12v6.33c0 5.008.02 6.332.096 6.34.097.01 1.52.107 1.907.13.115.007.21.004.21-.006zm9.21-.103.4-.04V5.711h-1.075c-.936 0-1.07.015-1.032.117.288.749.391 1.273.391 1.98 0 .652-.025.811-.177 1.095-.285.534-.756.984-1.652 1.577-1.18.781-1.489 1.132-1.488 1.69 0 .466.22.716 1.23 1.4 1.609 1.088 2.05 1.645 2.107 2.666.033.576-.106 1.17-.468 2l-.124.284.744-.04c.409-.021.924-.057 1.144-.08zm-2.012-1.65c.154-.574-.073-1.178-.626-1.667-.325-.289-2.238-1.594-2.335-1.594-.079 0-.039.726.068 1.23.182.859.654 1.571 1.252 1.891.255.137.942.3 1.28.306.264.004.322-.022.361-.166zm-5.745-.027c.766-.228 1.296-.728 1.557-1.47.137-.387.32-1.663.25-1.734-.063-.062-1.287.71-1.951 1.23-.798.624-1.134 1.212-1.037 1.81.047.284.05.286.408.286.198 0 .546-.055.773-.122zm4.175-7.388c.898-.218 1.374-.577 1.548-1.168.116-.396.018-1.033-.284-1.849l-.197-.532h-5.99l-.208.553c-.264.702-.348 1.74-.17 2.082.292.558.938.892 1.986 1.024.766.097 2.734.032 3.315-.11z"/><path d="M.728 18.52v4.168a2.772 2.772 0 0 0 2.778 2.778h19.447a2.772 2.772 0 0 0 2.778-2.778v-4.167z" style="opacity:1;fill:#222;fill-opacity:1;fill-rule:nonzero;stroke:none;stroke-width:.25;stroke-linecap:butt;stroke-linejoin:round;stroke-miterlimit:4;stroke-dasharray:none;stroke-dashoffset:0;stroke-opacity:.90944878;paint-order:normal"/><g style="font-style:normal;font-variant:normal;font-weight:500;font-stretch:normal;font-size:4.23333311px;line-height:4.23333311px;font-family:Montserrat;-inkscape-font-specification:'Montserrat Medium';text-align:center;letter-spacing:-.26458332px;text-anchor:middle;opacity:1;fill:#eee;fill-opacity:1;fill-rule:nonzero;stroke:none;stroke-width:.25;stroke-linecap:butt;stroke-linejoin:round;stroke-miterlimit:4;stroke-dasharray:none;stroke-dashoffset:0;stroke-opacity:.90944878;paint-order:normal" aria-label="TRADITION"><path style="font-style:normal;font-variant:normal;font-weight:500;font-stretch:normal;font-size:4.23333311px;font-family:Montserrat;-inkscape-font-specification:'Montserrat Medium';letter-spacing:-.26458332px;fill:#eee;fill-opacity:1;stroke-width:.25" d="M2.224 20.325H4.64v.504h-.923v2.46h-.572v-2.46h-.922zM6.632 23.289l-.512-.877q-.034.005-.106.005h-.669v.872h-.567v-2.964h1.236q.576 0 .89.267.312.267.312.753 0 .348-.152.593-.148.246-.436.368l.652.983zm-1.287-1.372h.67q.32 0 .49-.14.17-.14.17-.415 0-.27-.17-.406-.17-.135-.49-.135h-.67z"/><path style="font-style:normal;font-variant:normal;font-weight:500;font-stretch:normal;font-size:4.23333311px;font-family:Montserrat;-inkscape-font-specification:'Montserrat Medium';letter-spacing:-.26458332px;fill:#eee;fill-opacity:1;stroke-width:.25" d="m9.766 23.289-.263-.627H8.055l-.262.627h-.589l1.3-2.964h.588l1.283 2.964zm-1.508-1.114H9.3l-.517-1.244zM11.698 20.325q.445 0 .796.19.352.187.55.526.2.338.2.766t-.204.766q-.199.335-.554.525-.356.19-.809.19h-1.21v-2.963zm.013 2.464q.271 0 .487-.123.22-.127.343-.347.123-.224.123-.508 0-.283-.127-.508-.127-.228-.352-.351-.22-.127-.495-.127h-.656v1.964zM13.476 20.325h.567v2.964h-.567zM14.18 20.325h2.417v.504h-.923v2.46h-.572v-2.46h-.923zM16.734 20.325h.567v2.964h-.567zM19.114 20.287q.44 0 .8.2.364.198.571.545.208.347.208.77 0 .424-.208.775-.207.348-.571.55-.36.204-.8.204-.44 0-.805-.203-.36-.203-.567-.55-.207-.352-.207-.775 0-.424.207-.77.207-.348.567-.547.364-.199.805-.199zm.008.508q-.27 0-.504.136-.233.13-.368.364-.135.228-.135.508t.135.512q.14.233.368.368.233.136.504.136.267 0 .495-.136.229-.135.36-.368.136-.233.136-.512 0-.28-.136-.508-.131-.233-.36-.364-.228-.136-.495-.136zM22.992 20.325h.55v2.964h-.538l-1.524-2.04v2.04h-.554v-2.964h.537l1.529 2.045z"/></g></g><g style="stroke-width:.5" transform="matrix(2 0 0 2 396.875 66.675)"><rect ry="1.984" rx="1.984" style="opacity:1;fill:#222;fill-opacity:1;fill-rule:nonzero;stroke:none;stroke-width:.25;stroke-linecap:butt;stroke-linejoin:round;stroke-miterlimit:4;stroke-dasharray:none;stroke-dashoffset:0;stroke-opacity:.90944878;paint-order:normal" width="26.458" height="26.458"/><rect ry="1.323" rx="1.323" y="1.323" x="1.323" height="23.813" width="23.813" style="opacity:1;fill:#9c27b0;fill-opacity:1;fill-rule:nonzero;stroke:none;stroke-width:.25;stroke-linecap:butt;stroke-linejoin:round;stroke-miterlimit:4;stroke-dasharray:none;stroke-dashoffset:0;stroke-opacity:.90944878;paint-order:normal"/><path style="font-style:normal;font-variant:normal;font-weight:700;font-stretch:normal;font-size:4.23333311px;line-height:4.23333311px;font-family:Montserrat;-inkscape-font-specification:'Montserrat Bold';text-align:center;text-anchor:middle;opacity:1;fill:#222;fill-opacity:1;fill-rule:nonzero;stroke:none;stroke-width:.24999999;stroke-linecap:butt;stroke-linejoin:round;stroke-miterlimit:4;stroke-dasharray:none;stroke-dashoffset:0;stroke-opacity:.90944878;paint-order:normal" d="M10.805 3.447a.159.159 0 0 0-.137.114.159.159 0 0 0 0 .003c-.527.074-1.026.401-1.48 1.127-.476.775-.836 1.889-1.11 3.276-1.297-.449-2.425-.7-3.337-.685-.96.017-1.626.262-1.926.788a.159.159 0 0 0 0 .002 1.3 1.3 0 0 0-.155.635c0 .42.156.891.448 1.418.433.8 1.208 1.656 2.242 2.565-1.05.924-1.835 1.787-2.268 2.58a.159.159 0 0 0 0 .002c-.275.525-.422.986-.422 1.39 0 .233.052.447.155.635a.159.159 0 0 0 0 .002c.291.517.943.766 1.886.8a.159.159 0 0 0 .003 0c.913.023 2.053-.234 3.371-.697.275 1.348.624 2.453 1.087 3.236a.159.159 0 0 0 0 .002c.5.825 1.05 1.282 1.659 1.282.601 0 1.143-.457 1.635-1.282a.159.159 0 0 0 0-.002c.464-.784.816-1.888 1.09-3.239 1.33.458 2.473.711 3.381.687.942-.024 1.594-.269 1.886-.784v-.003c.113-.189.169-.41.169-.652 0-.404-.146-.86-.422-1.377a.159.159 0 0 0 0-.002c-.443-.798-1.234-1.658-2.294-2.58 1.036-.91 1.823-1.768 2.27-2.575h-.002c.292-.518.448-.98.448-1.394 0-.242-.056-.463-.169-.652-.3-.524-.97-.768-1.935-.785-.91-.016-2.04.236-3.34.682-.274-1.385-.63-2.498-1.107-3.273-.492-.8-1.025-1.244-1.61-1.244a.159.159 0 0 0-.016 0zm.016.937c.15 0 .308.068.483.232s.36.424.545.78c.347.655.624 1.637.84 2.868-.626.24-1.248.512-1.866.818a24.242 24.242 0 0 0-1.893-.818c.215-1.23.493-2.213.839-2.868.185-.355.372-.616.55-.78.18-.164.342-.232.502-.232zM4.764 8.13c.09-.002.187 0 .289.005.747.038 1.718.287 2.856.705-.1.666-.174 1.345-.22 2.037-.58.391-1.13.795-1.65 1.213-.938-.776-1.643-1.493-2.05-2.127a.159.159 0 0 0 0-.003c-.22-.339-.355-.63-.408-.869-.053-.238-.03-.415.056-.558a.159.159 0 0 0 .003-.002c.078-.137.216-.243.45-.314.175-.053.4-.084.674-.087zm12.103 0c.273.003.5.034.676.087.235.07.377.177.46.314.081.142.106.319.051.558-.054.238-.192.532-.413.871a.159.159 0 0 0 0 .003c-.407.641-1.116 1.363-2.061 2.14a24.558 24.558 0 0 0-1.65-1.217 22.409 22.409 0 0 0-.232-2.046c1.138-.417 2.114-.667 2.878-.705h.002c.101-.005.198-.006.29-.005zm-4.036 1.043c.046.354.081.715.113 1.08-.176-.108-.352-.216-.527-.328a.159.159 0 0 0-.007-.004c-.195-.109-.382-.208-.57-.31.334-.153.665-.3.991-.438zm-4.041.01c.326.133.657.279.99.43-.185.102-.37.202-.559.31a.159.159 0 0 0-.005.002c-.183.113-.362.221-.541.33.031-.364.069-.723.115-1.073zm2.006.937c.38.198.76.4 1.14.613.372.213.734.435 1.092.661a25.84 25.84 0 0 1 0 2.582c-.35.226-.713.446-1.092.658a.159.159 0 0 0-.002.003c-.372.22-.744.425-1.115.623a18.958 18.958 0 0 1-1.12-.623.159.159 0 0 0-.007-.003 18.01 18.01 0 0 1-1.102-.658 38.4 38.4 0 0 1 0-2.582c.358-.226.725-.448 1.104-.66a.159.159 0 0 0 .002 0c.364-.212.73-.417 1.1-.614zm.025 1.485c-.189 0-.37.05-.539.143a.949.949 0 0 0-.403.391 1.111 1.111 0 0 0 0 1.092.159.159 0 0 0 .003.002 1.101 1.101 0 0 0 .94.53c.181 0 .36-.05.527-.143a1.05 1.05 0 0 0 .4-.387.159.159 0 0 0 .003-.002 1.11 1.11 0 0 0 0-1.092.949.949 0 0 0-.403-.39 1.083 1.083 0 0 0-.528-.144zm-3.184.44c-.004.215-.007.427-.007.645 0 .212.003.423.007.635-.303-.209-.6-.42-.88-.635.28-.22.577-.435.88-.644zm6.347 0c.305.21.604.424.89.645-.286.216-.585.426-.89.635.007-.212.017-.424.017-.635 0-.218-.01-.43-.017-.644zM6.03 13.279c.527.419 1.078.824 1.659 1.216.046.69.12 1.369.22 2.034-1.161.425-2.145.675-2.892.705-.398.016-.714-.015-.944-.087-.23-.07-.367-.175-.445-.309-.077-.133-.1-.306-.047-.541.053-.236.183-.528.396-.867a.159.159 0 0 0 .003-.002c.383-.632 1.09-1.357 2.05-2.149zm9.559 0c.96.792 1.673 1.518 2.064 2.15a.159.159 0 0 0 0 .003c.217.34.35.63.403.865.053.235.03.405-.051.539a.159.159 0 0 0 0 .002c-.078.134-.218.238-.448.31-.23.07-.546.102-.944.086-.747-.03-1.735-.28-2.903-.705.1-.665.174-1.343.22-2.034.58-.392 1.131-.797 1.659-1.216zm-6.914 1.834c.18.113.356.227.546.336.184.108.372.208.56.31-.335.152-.667.298-.994.437-.046-.355-.08-.717-.112-1.083zm4.269.003a25.21 25.21 0 0 1-.113 1.08 37.778 37.778 0 0 1-.99-.438c.187-.101.374-.2.569-.31a.159.159 0 0 0 .002-.002c.182-.107.356-.22.532-.33zm-2.148 1.172c.628.308 1.26.58 1.895.829-.208 1.202-.482 2.172-.83 2.844a.159.159 0 0 0 0 .003c-.181.359-.367.621-.543.787-.177.166-.337.234-.497.234-.165 0-.33-.07-.51-.236-.181-.166-.368-.429-.554-.788-.347-.672-.622-1.642-.83-2.844a24.304 24.304 0 0 0 1.869-.83z"/><path d="M.728 18.52v4.168a2.772 2.772 0 0 0 2.778 2.778h19.447a2.772 2.772 0 0 0 2.778-2.778v-4.167z" style="opacity:1;fill:#222;fill-opacity:1;fill-rule:nonzero;stroke:none;stroke-width:.24999997;stroke-linecap:butt;stroke-linejoin:round;stroke-miterlimit:4;stroke-dasharray:none;stroke-dashoffset:0;stroke-opacity:.90944878;paint-order:normal"/><g style="font-style:normal;font-variant:normal;font-weight:500;font-stretch:normal;font-size:4.23333311px;line-height:4.23333311px;font-family:Montserrat;-inkscape-font-specification:'Montserrat Medium';text-align:center;letter-spacing:-.26458332px;text-anchor:middle;opacity:1;fill:#eee;fill-opacity:1;fill-rule:nonzero;stroke:none;stroke-width:.25;stroke-linecap:butt;stroke-linejoin:round;stroke-miterlimit:4;stroke-dasharray:none;stroke-dashoffset:0;stroke-opacity:.90944878;paint-order:normal" aria-label="PROGRESS"><path style="font-style:normal;font-variant:normal;font-weight:500;font-stretch:normal;font-size:4.23333311px;font-family:Montserrat;-inkscape-font-specification:'Montserrat Medium';letter-spacing:-.26458332px;fill:#eee;fill-opacity:1;stroke-width:.25" d="M3.76 20.325q.56 0 .864.267.31.267.31.754 0 .508-.31.791-.305.28-.863.28h-.648v.872h-.567v-2.964zm-.03 1.592q.323 0 .492-.14.174-.14.174-.415 0-.27-.174-.406-.17-.135-.491-.135h-.618v1.096zM6.996 23.289l-.512-.877q-.034.005-.106.005h-.669v.872h-.567v-2.964h1.236q.576 0 .889.267.313.267.313.753 0 .348-.152.593-.148.246-.436.368l.652.983zm-1.287-1.372h.669q.322 0 .491-.14.17-.14.17-.415 0-.27-.17-.406-.17-.135-.491-.135h-.669zM9.283 20.287q.44 0 .8.2.364.198.571.545.208.347.208.77 0 .424-.208.775-.207.348-.571.55-.36.204-.8.204-.44 0-.805-.203-.36-.203-.567-.55-.207-.352-.207-.775 0-.424.207-.77.207-.348.567-.547.364-.199.805-.199zm.008.508q-.27 0-.504.136-.232.13-.368.364-.135.228-.135.508t.135.512q.14.233.368.368.233.136.504.136.267 0 .495-.136.229-.135.36-.368.136-.233.136-.512 0-.28-.136-.508-.131-.233-.36-.364-.228-.136-.495-.136z"/><path style="font-style:normal;font-variant:normal;font-weight:500;font-stretch:normal;font-size:4.23333311px;font-family:Montserrat;-inkscape-font-specification:'Montserrat Medium';letter-spacing:-.26458332px;fill:#eee;fill-opacity:1;stroke-width:.25" d="M13.007 21.815h.495v1.126q-.233.174-.55.284-.318.106-.623.106-.436 0-.796-.203-.355-.203-.563-.55-.207-.352-.207-.775 0-.424.212-.767.211-.347.575-.546.369-.203.813-.203.318 0 .627.114.309.115.533.314l-.322.419q-.17-.161-.393-.25-.22-.089-.445-.089-.28 0-.516.136-.233.13-.369.364-.135.233-.135.508 0 .28.135.512.14.233.373.368.233.136.516.136.153 0 .318-.047.17-.05.322-.14zM15.744 23.289l-.512-.877q-.034.005-.106.005h-.67v.872h-.566v-2.964h1.236q.575 0 .889.267.313.267.313.753 0 .348-.152.593-.149.246-.436.368l.651.983zm-1.287-1.372h.669q.321 0 .49-.14.17-.14.17-.415 0-.27-.17-.406-.169-.135-.49-.135h-.67zM16.684 20.325h2.172v.496H17.25v.732h1.44v.495h-1.44v.745h1.656v.496h-2.223zM21.077 21.087q-.229-.14-.47-.216-.237-.076-.419-.076-.203 0-.322.076-.118.077-.118.212 0 .123.08.207.085.08.208.136.127.05.342.114.301.09.492.178.194.089.33.263.135.173.135.457 0 .27-.148.474-.144.199-.402.305-.254.105-.584.105-.347 0-.678-.127-.33-.13-.575-.347l.237-.482q.224.207.503.326.28.118.521.118.237 0 .373-.089.135-.093.135-.25 0-.126-.085-.207-.08-.085-.207-.135-.127-.051-.347-.115-.3-.089-.491-.173-.19-.085-.326-.254-.136-.174-.136-.453 0-.258.136-.449.14-.195.39-.3.253-.106.584-.106.287 0 .567.084.283.085.504.229zM23.475 21.087q-.229-.14-.47-.216-.237-.076-.42-.076-.202 0-.321.076-.119.077-.119.212 0 .123.08.207.086.08.208.136.127.05.343.114.3.09.491.178.195.089.33.263.136.173.136.457 0 .27-.148.474-.144.199-.402.305-.254.105-.585.105-.347 0-.677-.127-.33-.13-.576-.347l.237-.482q.225.207.504.326.28.118.52.118.238 0 .373-.089.136-.093.136-.25 0-.126-.085-.207-.08-.085-.207-.135-.127-.051-.347-.115-.3-.089-.491-.173-.19-.085-.326-.254-.136-.174-.136-.453 0-.258.136-.449.14-.195.39-.3.253-.106.583-.106.288 0 .568.084.283.085.503.229z"/></g></g><text xml:space="preserve" style="font-style:normal;font-variant:normal;font-weight:500;font-stretch:normal;font-size:8.46666622px;line-height:4.23333311px;font-family:Montserrat;-inkscape-font-specification:'Montserrat Medium';text-align:center;text-anchor:middle;opacity:1;fill:#eee;fill-opacity:1;fill-rule:nonzero;stroke:none;stroke-width:4.23333311;stroke-linecap:butt;stroke-linejoin:round;stroke-miterlimit:4;stroke-dasharray:none;stroke-dashoffset:0;stroke-opacity:1;paint-order:stroke fill markers" x="-355.537" y="24.113" transform="translate(98.049 -95.143)"><tspan x="-355.537" y="24.113" style="font-style:normal;font-variant:normal;font-weight:500;font-stretch:normal;font-size:8.46666622px;font-family:Montserrat;-inkscape-font-specification:'Montserrat Medium';text-align:center;text-anchor:middle;fill:#eee;fill-opacity:1;stroke-width:4.23333311">ORD</tspan></text></svg>