<svg xmlns="http://www.w3.org/2000/svg" viewBox="0 0 52.917 52.917"><g style="stroke-width:.5" transform="matrix(2 0 0 2 0 0)"><rect ry="1.984" rx="1.984" style="opacity:1;fill:#222;fill-opacity:1;fill-rule:nonzero;stroke:none;stroke-width:.25;stroke-linecap:butt;stroke-linejoin:round;stroke-miterlimit:4;stroke-dasharray:none;stroke-dashoffset:0;stroke-opacity:.90944878;paint-order:normal" width="26.458" height="26.458"/><rect ry="1.323" rx="1.323" y="1.323" x="1.323" height="23.813" width="23.813" style="opacity:1;fill:#9c27b0;fill-opacity:1;fill-rule:nonzero;stroke:none;stroke-width:.25;stroke-linecap:butt;stroke-linejoin:round;stroke-miterlimit:4;stroke-dasharray:none;stroke-dashoffset:0;stroke-opacity:.90944878;paint-order:normal"/><path style="font-style:normal;font-variant:normal;font-weight:700;font-stretch:normal;font-size:4.23333311px;line-height:4.23333311px;font-family:Montserrat;-inkscape-font-specification:'Montserrat Bold';text-align:center;text-anchor:middle;opacity:1;fill:#222;fill-opacity:1;fill-rule:nonzero;stroke:none;stroke-width:.24999999;stroke-linecap:butt;stroke-linejoin:round;stroke-miterlimit:4;stroke-dasharray:none;stroke-dashoffset:0;stroke-opacity:.90944878;paint-order:normal" d="M10.805 3.447a.159.159 0 0 0-.137.114.159.159 0 0 0 0 .003c-.527.074-1.026.401-1.48 1.127-.476.775-.836 1.889-1.11 3.276-1.297-.449-2.425-.7-3.337-.685-.96.017-1.626.262-1.926.788a.159.159 0 0 0 0 .002 1.3 1.3 0 0 0-.155.635c0 .42.156.891.448 1.418.433.8 1.208 1.656 2.242 2.565-1.05.924-1.835 1.787-2.268 2.58a.159.159 0 0 0 0 .002c-.275.525-.422.986-.422 1.39 0 .233.052.447.155.635a.159.159 0 0 0 0 .002c.291.517.943.766 1.886.8a.159.159 0 0 0 .003 0c.913.023 2.053-.234 3.371-.697.275 1.348.624 2.453 1.087 3.236a.159.159 0 0 0 0 .002c.5.825 1.05 1.282 1.659 1.282.601 0 1.143-.457 1.635-1.282a.159.159 0 0 0 0-.002c.464-.784.816-1.888 1.09-3.239 1.33.458 2.473.711 3.381.687.942-.024 1.594-.269 1.886-.784v-.003c.113-.189.169-.41.169-.652 0-.404-.146-.86-.422-1.377a.159.159 0 0 0 0-.002c-.443-.798-1.234-1.658-2.294-2.58 1.036-.91 1.823-1.768 2.27-2.575h-.002c.292-.518.448-.98.448-1.394 0-.242-.056-.463-.169-.652-.3-.524-.97-.768-1.935-.785-.91-.016-2.04.236-3.34.682-.274-1.385-.63-2.498-1.107-3.273-.492-.8-1.025-1.244-1.61-1.244a.159.159 0 0 0-.016 0zm.016.937c.15 0 .308.068.483.232s.36.424.545.78c.347.655.624 1.637.84 2.868-.626.24-1.248.512-1.866.818a24.242 24.242 0 0 0-1.893-.818c.215-1.23.493-2.213.839-2.868.185-.355.372-.616.55-.78.18-.164.342-.232.502-.232zM4.764 8.13c.09-.002.187 0 .289.005.747.038 1.718.287 2.856.705-.1.666-.174 1.345-.22 2.037-.58.391-1.13.795-1.65 1.213-.938-.776-1.643-1.493-2.05-2.127a.159.159 0 0 0 0-.003c-.22-.339-.355-.63-.408-.869-.053-.238-.03-.415.056-.558a.159.159 0 0 0 .003-.002c.078-.137.216-.243.45-.314.175-.053.4-.084.674-.087zm12.103 0c.273.003.5.034.676.087.235.07.377.177.46.314.081.142.106.319.051.558-.054.238-.192.532-.413.871a.159.159 0 0 0 0 .003c-.407.641-1.116 1.363-2.061 2.14a24.558 24.558 0 0 0-1.65-1.217 22.409 22.409 0 0 0-.232-2.046c1.138-.417 2.114-.667 2.878-.705h.002c.101-.005.198-.006.29-.005zm-4.036 1.043c.046.354.081.715.113 1.08-.176-.108-.352-.216-.527-.328a.159.159 0 0 0-.007-.004c-.195-.109-.382-.208-.57-.31.334-.153.665-.3.991-.438zm-4.041.01c.326.133.657.279.99.43-.185.102-.37.202-.559.31a.159.159 0 0 0-.005.002c-.183.113-.362.221-.541.33.031-.364.069-.723.115-1.073zm2.006.937c.38.198.76.4 1.14.613.372.213.734.435 1.092.661a25.84 25.84 0 0 1 0 2.582c-.35.226-.713.446-1.092.658a.159.159 0 0 0-.002.003c-.372.22-.744.425-1.115.623a18.958 18.958 0 0 1-1.12-.623.159.159 0 0 0-.007-.003 18.01 18.01 0 0 1-1.102-.658 38.4 38.4 0 0 1 0-2.582c.358-.226.725-.448 1.104-.66a.159.159 0 0 0 .002 0c.364-.212.73-.417 1.1-.614zm.025 1.485c-.189 0-.37.05-.539.143a.949.949 0 0 0-.403.391 1.111 1.111 0 0 0 0 1.092.159.159 0 0 0 .003.002 1.101 1.101 0 0 0 .94.53c.181 0 .36-.05.527-.143a1.05 1.05 0 0 0 .4-.387.159.159 0 0 0 .003-.002 1.11 1.11 0 0 0 0-1.092.949.949 0 0 0-.403-.39 1.083 1.083 0 0 0-.528-.144zm-3.184.44c-.004.215-.007.427-.007.645 0 .212.003.423.007.635-.303-.209-.6-.42-.88-.635.28-.22.577-.435.88-.644zm6.347 0c.305.21.604.424.89.645-.286.216-.585.426-.89.635.007-.212.017-.424.017-.635 0-.218-.01-.43-.017-.644zM6.03 13.279c.527.419 1.078.824 1.659 1.216.046.69.12 1.369.22 2.034-1.161.425-2.145.675-2.892.705-.398.016-.714-.015-.944-.087-.23-.07-.367-.175-.445-.309-.077-.133-.1-.306-.047-.541.053-.236.183-.528.396-.867a.159.159 0 0 0 .003-.002c.383-.632 1.09-1.357 2.05-2.149zm9.559 0c.96.792 1.673 1.518 2.064 2.15a.159.159 0 0 0 0 .003c.217.34.35.63.403.865.053.235.03.405-.051.539a.159.159 0 0 0 0 .002c-.078.134-.218.238-.448.31-.23.07-.546.102-.944.086-.747-.03-1.735-.28-2.903-.705.1-.665.174-1.343.22-2.034.58-.392 1.131-.797 1.659-1.216zm-6.914 1.834c.18.113.356.227.546.336.184.108.372.208.56.31-.335.152-.667.298-.994.437-.046-.355-.08-.717-.112-1.083zm4.269.003a25.21 25.21 0 0 1-.113 1.08 37.778 37.778 0 0 1-.99-.438c.187-.101.374-.2.569-.31a.159.159 0 0 0 .002-.002c.182-.107.356-.22.532-.33zm-2.148 1.172c.628.308 1.26.58 1.895.829-.208 1.202-.482 2.172-.83 2.844a.159.159 0 0 0 0 .003c-.181.359-.367.621-.543.787-.177.166-.337.234-.497.234-.165 0-.33-.07-.51-.236-.181-.166-.368-.429-.554-.788-.347-.672-.622-1.642-.83-2.844a24.304 24.304 0 0 0 1.869-.83z"/><path d="M.728 18.52v4.168a2.772 2.772 0 0 0 2.778 2.778h19.447a2.772 2.772 0 0 0 2.778-2.778v-4.167z" style="opacity:1;fill:#222;fill-opacity:1;fill-rule:nonzero;stroke:none;stroke-width:.24999997;stroke-linecap:butt;stroke-linejoin:round;stroke-miterlimit:4;stroke-dasharray:none;stroke-dashoffset:0;stroke-opacity:.90944878;paint-order:normal"/><g style="font-style:normal;font-variant:normal;font-weight:500;font-stretch:normal;font-size:4.23333311px;line-height:4.23333311px;font-family:Montserrat;-inkscape-font-specification:'Montserrat Medium';text-align:center;letter-spacing:-.26458332px;text-anchor:middle;opacity:1;fill:#eee;fill-opacity:1;fill-rule:nonzero;stroke:none;stroke-width:.25;stroke-linecap:butt;stroke-linejoin:round;stroke-miterlimit:4;stroke-dasharray:none;stroke-dashoffset:0;stroke-opacity:.90944878;paint-order:normal" aria-label="PROGRESS"><path style="font-style:normal;font-variant:normal;font-weight:500;font-stretch:normal;font-size:4.23333311px;font-family:Montserrat;-inkscape-font-specification:'Montserrat Medium';letter-spacing:-.26458332px;fill:#eee;fill-opacity:1;stroke-width:.25" d="M3.76 20.325q.56 0 .864.267.31.267.31.754 0 .508-.31.791-.305.28-.863.28h-.648v.872h-.567v-2.964zm-.03 1.592q.323 0 .492-.14.174-.14.174-.415 0-.27-.174-.406-.17-.135-.491-.135h-.618v1.096zM6.996 23.289l-.512-.877q-.034.005-.106.005h-.669v.872h-.567v-2.964h1.236q.576 0 .889.267.313.267.313.753 0 .348-.152.593-.148.246-.436.368l.652.983zm-1.287-1.372h.669q.322 0 .491-.14.17-.14.17-.415 0-.27-.17-.406-.17-.135-.491-.135h-.669zM9.283 20.287q.44 0 .8.2.364.198.571.545.208.347.208.77 0 .424-.208.775-.207.348-.571.55-.36.204-.8.204-.44 0-.805-.203-.36-.203-.567-.55-.207-.352-.207-.775 0-.424.207-.77.207-.348.567-.547.364-.199.805-.199zm.008.508q-.27 0-.504.136-.232.13-.368.364-.135.228-.135.508t.135.512q.14.233.368.368.233.136.504.136.267 0 .495-.136.229-.135.36-.368.136-.233.136-.512 0-.28-.136-.508-.131-.233-.36-.364-.228-.136-.495-.136z"/><path style="font-style:normal;font-variant:normal;font-weight:500;font-stretch:normal;font-size:4.23333311px;font-family:Montserrat;-inkscape-font-specification:'Montserrat Medium';letter-spacing:-.26458332px;fill:#eee;fill-opacity:1;stroke-width:.25" d="M13.007 21.815h.495v1.126q-.233.174-.55.284-.318.106-.623.106-.436 0-.796-.203-.355-.203-.563-.55-.207-.352-.207-.775 0-.424.212-.767.211-.347.575-.546.369-.203.813-.203.318 0 .627.114.309.115.533.314l-.322.419q-.17-.161-.393-.25-.22-.089-.445-.089-.28 0-.516.136-.233.13-.369.364-.135.233-.135.508 0 .28.135.512.14.233.373.368.233.136.516.136.153 0 .318-.047.17-.05.322-.14zM15.744 23.289l-.512-.877q-.034.005-.106.005h-.67v.872h-.566v-2.964h1.236q.575 0 .889.267.313.267.313.753 0 .348-.152.593-.149.246-.436.368l.651.983zm-1.287-1.372h.669q.321 0 .49-.14.17-.14.17-.415 0-.27-.17-.406-.169-.135-.49-.135h-.67zM16.684 20.325h2.172v.496H17.25v.732h1.44v.495h-1.44v.745h1.656v.496h-2.223zM21.077 21.087q-.229-.14-.47-.216-.237-.076-.419-.076-.203 0-.322.076-.118.077-.118.212 0 .123.08.207.085.08.208.136.127.05.342.114.301.09.492.178.194.089.33.263.135.173.135.457 0 .27-.148.474-.144.199-.402.305-.254.105-.584.105-.347 0-.678-.127-.33-.13-.575-.347l.237-.482q.224.207.503.326.28.118.521.118.237 0 .373-.089.135-.093.135-.25 0-.126-.085-.207-.08-.085-.207-.135-.127-.051-.347-.115-.3-.089-.491-.173-.19-.085-.326-.254-.136-.174-.136-.453 0-.258.136-.449.14-.195.39-.3.253-.106.584-.106.287 0 .567.084.283.085.504.229zM23.475 21.087q-.229-.14-.47-.216-.237-.076-.42-.076-.202 0-.321.076-.119.077-.119.212 0 .123.08.207.086.08.208.136.127.05.343.114.3.09.491.178.195.089.33.263.136.173.136.457 0 .27-.148.474-.144.199-.402.305-.254.105-.585.105-.347 0-.677-.127-.33-.13-.576-.347l.237-.482q.225.207.504.326.28.118.52.118.238 0 .373-.089.136-.093.136-.25 0-.126-.085-.207-.08-.085-.207-.135-.127-.051-.347-.115-.3-.089-.491-.173-.19-.085-.326-.254-.136-.174-.136-.453 0-.258.136-.449.14-.195.39-.3.253-.106.583-.106.288 0 .568.084.283.085.503.229z"/></g></g><text xml:space="preserve" style="font-style:normal;font-variant:normal;font-weight:500;font-stretch:normal;font-size:8.46666622px;line-height:4.23333311px;font-family:Montserrat;-inkscape-font-specification:'Montserrat Medium';text-align:center;text-anchor:middle;opacity:1;fill:#eee;fill-opacity:1;fill-rule:nonzero;stroke:none;stroke-width:4.23333311;stroke-linecap:butt;stroke-linejoin:round;stroke-miterlimit:4;stroke-dasharray:none;stroke-dashoffset:0;stroke-opacity:1;paint-order:stroke fill markers" x="-355.537" y="24.113" transform="translate(98.049 -95.143)"><tspan x="-355.537" y="24.113" style="font-style:normal;font-variant:normal;font-weight:500;font-stretch:normal;font-size:8.46666622px;font-family:Montserrat;-inkscape-font-specification:'Montserrat Medium';text-align:center;text-anchor:middle;fill:#eee;fill-opacity:1;stroke-width:4.23333311">ORD</tspan></text></svg>